<svg width="115" height="84" viewBox="0 0 115 84" fill="none" xmlns="http://www.w3.org/2000/svg">
<g clip-path="url(#clip0_2437_33330)">
<path d="M80.3151 34.786C76.54 31.011 70.4186 31.011 66.6421 34.786L50.703 50.7252C45.6611 55.767 37.486 55.767 32.4442 50.7252C27.4023 45.6833 27.4023 37.5082 32.4442 32.4664L48.4072 16.5033C52.1823 12.7282 52.1823 6.60679 48.4072 2.83032C44.6322 -0.944742 38.5107 -0.944742 34.7343 2.83032L2.83063 34.7339C0.936063 36.6285 -0.00699867 39.1128 3.90987e-05 41.5958C-0.00699867 44.0787 0.936063 46.563 2.83063 48.4576L34.7328 80.3598C36.6218 82.2488 39.0977 83.1918 41.5722 83.1918C44.048 83.1918 46.5225 82.2488 48.4115 80.3598L80.3137 48.4576C84.0887 44.6825 84.0887 38.5611 80.3137 34.7846L80.3151 34.786Z" fill="#333333"/>
<path d="M34.6868 48.4058C38.4618 52.1809 44.5833 52.1809 48.3597 48.4058L64.2989 32.4666C69.3408 27.4248 77.5158 27.4248 82.5577 32.4666C87.5995 37.5085 87.5995 45.6836 82.5577 50.7254L66.5946 66.6885C62.8196 70.4636 62.8196 76.585 66.5946 80.3615C70.3697 84.1366 76.4911 84.1366 80.2676 80.3615L112.17 48.4593C114.064 46.5647 115.007 44.0804 115 41.5975C115.007 39.1145 114.064 36.6302 112.17 34.7356L80.269 2.832C78.3801 0.943061 75.9042 0 73.4283 0C70.9524 0 68.4779 0.943061 66.589 2.832L34.6868 34.7342C30.9117 38.5093 30.9117 44.6307 34.6868 48.4072V48.4058Z" fill="#333333"/>
</g>
<defs>
<clipPath id="clip0_2437_33330">
<rect width="115" height="83.1921" fill="white"/>
</clipPath>
</defs>
</svg>
