<svg width="998" height="285" viewBox="0 0 998 285" fill="none" xmlns="http://www.w3.org/2000/svg">
<circle cx="100" cy="137" r="100" fill="black"/>
<circle cx="100" cy="137" r="92" fill="black" stroke="white" stroke-width="2" stroke-dasharray="6 6"/>
<circle cx="366" cy="137" r="100" fill="black"/>
<circle cx="632" cy="137" r="100" fill="black"/>
<circle cx="898" cy="137" r="100" fill="black"/>
<path d="M180.443 48.8975C193.879 35.3798 212.135 27.7533 231.195 27.6957C250.254 27.6381 268.556 35.1542 282.073 48.5905" stroke="black" stroke-width="2" stroke-miterlimit="10"/>
<path d="M282.741 48.5593L271.961 48.5918C271.43 48.5934 271.001 49.0248 271.003 49.5553L271.004 49.9139C271.006 50.4444 271.437 50.8734 271.968 50.8718L282.748 50.8392C283.279 50.8376 283.707 50.406 283.706 49.8755L283.705 49.5169C283.703 48.9864 283.272 48.5577 282.741 48.5593Z" fill="black"/>
<path d="M281.469 38.9678L281.501 49.7484C281.503 50.2789 281.934 50.7077 282.465 50.7061L282.824 50.705C283.354 50.7034 283.783 50.272 283.781 49.7415L283.749 38.9609C283.747 38.4304 283.316 38.0016 282.785 38.0032L282.427 38.0043C281.896 38.0059 281.467 38.4373 281.469 38.9678Z" fill="black"/>
<path d="M180.443 48.4458C193.879 34.9281 212.135 27.3016 231.195 27.244C250.254 27.1865 268.556 34.7026 282.073 48.1389" stroke="black" stroke-width="2" stroke-miterlimit="10"/>
<path d="M282.741 48.1076L271.961 48.1402C271.43 48.1418 271.001 48.5731 271.003 49.1036L271.004 49.4622C271.006 49.9928 271.437 50.4217 271.968 50.4201L282.748 50.3875C283.279 50.3859 283.707 49.9544 283.706 49.4238L283.705 49.0653C283.703 48.5347 283.272 48.106 282.741 48.1076Z" fill="black"/>
<path d="M281.469 38.5162L281.501 49.2967C281.503 49.8272 281.934 50.256 282.465 50.2544L282.824 50.2533C283.354 50.2517 283.783 49.8204 283.781 49.2898L283.749 38.5093C283.747 37.9787 283.316 37.55 282.785 37.5516L282.427 37.5526C281.896 37.5542 281.467 37.9856 281.469 38.5162Z" fill="black"/>
<path d="M287.608 234.133C274.533 248 256.485 256.106 237.434 256.666C218.382 257.226 199.889 250.195 186.021 237.12" stroke="black" stroke-width="2" stroke-miterlimit="10" stroke-dasharray="4 4"/>
<path d="M185.355 237.169L196.131 236.852C196.661 236.837 197.078 236.394 197.063 235.864L197.052 235.506C197.036 234.975 196.594 234.558 196.064 234.574L185.288 234.89C184.757 234.906 184.34 235.349 184.356 235.879L184.366 236.237C184.382 236.768 184.824 237.185 185.355 237.169Z" fill="black"/>
<path d="M186.88 246.724L186.563 235.948C186.547 235.418 186.105 235 185.575 235.016L185.216 235.027C184.686 235.042 184.269 235.485 184.284 236.015L184.601 246.791C184.617 247.321 185.059 247.739 185.589 247.723L185.948 247.712C186.478 247.697 186.895 247.254 186.88 246.724Z" fill="black"/>
<path d="M553.611 234.133C540.536 248 522.488 256.106 503.437 256.666C484.385 257.226 465.892 250.195 452.024 237.12" stroke="black" stroke-width="2" stroke-miterlimit="10" stroke-dasharray="4 4"/>
<path d="M451.358 237.169L462.134 236.852C462.664 236.837 463.081 236.394 463.066 235.864L463.055 235.506C463.039 234.975 462.597 234.558 462.067 234.574L451.291 234.89C450.76 234.906 450.343 235.349 450.359 235.879L450.369 236.237C450.385 236.768 450.827 237.185 451.358 237.169Z" fill="black"/>
<path d="M452.883 246.724L452.566 235.948C452.55 235.418 452.108 235 451.577 235.016L451.219 235.027C450.689 235.042 450.271 235.485 450.287 236.015L450.604 246.791C450.62 247.321 451.062 247.739 451.592 247.723L451.951 247.712C452.481 247.697 452.898 247.254 452.883 246.724Z" fill="black"/>
<path d="M827.611 234.133C814.536 248 796.488 256.106 777.437 256.666C758.385 257.226 739.892 250.195 726.024 237.12" stroke="black" stroke-width="2" stroke-miterlimit="10" stroke-dasharray="4 4"/>
<path d="M725.358 237.169L736.134 236.852C736.664 236.837 737.081 236.394 737.066 235.864L737.055 235.506C737.039 234.975 736.597 234.558 736.067 234.574L725.291 234.89C724.76 234.906 724.343 235.349 724.359 235.879L724.369 236.237C724.385 236.768 724.827 237.185 725.358 237.169Z" fill="black"/>
<path d="M726.883 246.724L726.566 235.948C726.55 235.418 726.108 235 725.577 235.016L725.219 235.027C724.689 235.042 724.271 235.485 724.287 236.015L724.604 246.791C724.62 247.321 725.062 247.739 725.592 247.723L725.951 247.712C726.481 247.697 726.898 247.254 726.883 246.724Z" fill="black"/>
<path d="M446.443 48.8975C459.879 35.3798 478.135 27.7533 497.195 27.6957C516.254 27.6381 534.556 35.1542 548.073 48.5905" stroke="black" stroke-width="2" stroke-miterlimit="10"/>
<path d="M548.741 48.5593L537.961 48.5918C537.43 48.5934 537.001 49.0248 537.003 49.5553L537.004 49.9139C537.006 50.4444 537.437 50.8734 537.968 50.8718L548.748 50.8392C549.279 50.8376 549.707 50.406 549.706 49.8755L549.705 49.5169C549.703 48.9864 549.272 48.5577 548.741 48.5593Z" fill="black"/>
<path d="M547.469 38.9678L547.501 49.7484C547.503 50.2789 547.934 50.7077 548.465 50.7061L548.824 50.705C549.354 50.7034 549.783 50.272 549.781 49.7415L549.749 38.9609C549.747 38.4304 549.316 38.0016 548.785 38.0032L548.427 38.0043C547.896 38.0059 547.467 38.4373 547.469 38.9678Z" fill="black"/>
<path d="M720.443 48.8975C733.879 35.3798 752.135 27.7533 771.195 27.6957C790.254 27.6381 808.556 35.1542 822.073 48.5905" stroke="black" stroke-width="2" stroke-miterlimit="10"/>
<path d="M822.741 48.5593L811.961 48.5918C811.43 48.5934 811.001 49.0248 811.003 49.5553L811.004 49.9139C811.006 50.4444 811.437 50.8734 811.968 50.8718L822.748 50.8392C823.279 50.8376 823.707 50.406 823.706 49.8755L823.705 49.5169C823.703 48.9864 823.272 48.5577 822.741 48.5593Z" fill="black"/>
<path d="M821.469 38.9678L821.501 49.7484C821.503 50.2789 821.934 50.7077 822.465 50.7061L822.824 50.705C823.354 50.7034 823.783 50.272 823.781 49.7415L823.749 38.9609C823.747 38.4304 823.316 38.0016 822.785 38.0032L822.427 38.0043C821.896 38.0059 821.467 38.4373 821.469 38.9678Z" fill="black"/>
<circle cx="366" cy="137" r="92" fill="black" stroke="white" stroke-width="2" stroke-dasharray="6 6"/>
<circle cx="632" cy="137" r="92" fill="black" stroke="white" stroke-width="2" stroke-dasharray="6 6"/>
<circle cx="898" cy="137" r="92" fill="black" stroke="white" stroke-width="2" stroke-dasharray="6 6"/>
<path d="M66.6081 145L64.7181 142.27H64.6061H62.6321V145H60.3641V135.2H64.6061C65.4741 135.2 66.2255 135.345 66.8601 135.634C67.5041 135.923 67.9988 136.334 68.3441 136.866C68.6895 137.398 68.8621 138.028 68.8621 138.756C68.8621 139.484 68.6848 140.114 68.3301 140.646C67.9848 141.169 67.4901 141.57 66.8461 141.85L69.0441 145H66.6081ZM66.5661 138.756C66.5661 138.205 66.3888 137.785 66.0341 137.496C65.6795 137.197 65.1615 137.048 64.4801 137.048H62.6321V140.464H64.4801C65.1615 140.464 65.6795 140.315 66.0341 140.016C66.3888 139.717 66.5661 139.297 66.5661 138.756ZM78.2471 143.18V145H70.6591V135.2H78.0651V137.02H72.9131V139.148H77.4631V140.912H72.9131V143.18H78.2471ZM83.2716 145.168C82.497 145.168 81.7456 145.065 81.0176 144.86C80.299 144.645 79.7203 144.37 79.2816 144.034L80.0516 142.326C80.4716 142.634 80.971 142.881 81.5496 143.068C82.1283 143.255 82.707 143.348 83.2856 143.348C83.9296 143.348 84.4056 143.255 84.7136 143.068C85.0216 142.872 85.1756 142.615 85.1756 142.298C85.1756 142.065 85.0823 141.873 84.8956 141.724C84.7183 141.565 84.485 141.439 84.1956 141.346C83.9156 141.253 83.533 141.15 83.0476 141.038C82.301 140.861 81.6896 140.683 81.2136 140.506C80.7376 140.329 80.327 140.044 79.9816 139.652C79.6456 139.26 79.4776 138.737 79.4776 138.084C79.4776 137.515 79.6316 137.001 79.9396 136.544C80.2476 136.077 80.7096 135.709 81.3256 135.438C81.951 135.167 82.7116 135.032 83.6076 135.032C84.233 135.032 84.8443 135.107 85.4416 135.256C86.039 135.405 86.5616 135.62 87.0096 135.9L86.3096 137.622C85.4043 137.109 84.499 136.852 83.5936 136.852C82.959 136.852 82.4876 136.955 82.1796 137.16C81.881 137.365 81.7316 137.636 81.7316 137.972C81.7316 138.308 81.9043 138.56 82.2496 138.728C82.6043 138.887 83.141 139.045 83.8596 139.204C84.6063 139.381 85.2176 139.559 85.6936 139.736C86.1696 139.913 86.5756 140.193 86.9116 140.576C87.257 140.959 87.4296 141.477 87.4296 142.13C87.4296 142.69 87.271 143.203 86.9536 143.67C86.6456 144.127 86.179 144.491 85.5536 144.762C84.9283 145.033 84.1676 145.168 83.2716 145.168ZM96.5674 143.18V145H88.9794V135.2H96.3854V137.02H91.2334V139.148H95.7834V140.912H91.2334V143.18H96.5674ZM104.826 142.9H100.276L99.408 145H97.084L101.452 135.2H103.692L108.074 145H105.694L104.826 142.9ZM104.112 141.178L102.558 137.426L101.004 141.178H104.112ZM115.335 145L113.445 142.27H113.333H111.359V145H109.091V135.2H113.333C114.201 135.2 114.952 135.345 115.587 135.634C116.231 135.923 116.725 136.334 117.071 136.866C117.416 137.398 117.589 138.028 117.589 138.756C117.589 139.484 117.411 140.114 117.057 140.646C116.711 141.169 116.217 141.57 115.573 141.85L117.771 145H115.335ZM115.293 138.756C115.293 138.205 115.115 137.785 114.761 137.496C114.406 137.197 113.888 137.048 113.207 137.048H111.359V140.464H113.207C113.888 140.464 114.406 140.315 114.761 140.016C115.115 139.717 115.293 139.297 115.293 138.756ZM124.076 145.168C123.077 145.168 122.172 144.953 121.36 144.524C120.557 144.085 119.922 143.483 119.456 142.718C118.998 141.943 118.77 141.071 118.77 140.1C118.77 139.129 118.998 138.261 119.456 137.496C119.922 136.721 120.557 136.119 121.36 135.69C122.172 135.251 123.082 135.032 124.09 135.032C124.939 135.032 125.704 135.181 126.386 135.48C127.076 135.779 127.655 136.208 128.122 136.768L126.666 138.112C126.003 137.347 125.182 136.964 124.202 136.964C123.595 136.964 123.054 137.099 122.578 137.37C122.102 137.631 121.728 138 121.458 138.476C121.196 138.952 121.066 139.493 121.066 140.1C121.066 140.707 121.196 141.248 121.458 141.724C121.728 142.2 122.102 142.573 122.578 142.844C123.054 143.105 123.595 143.236 124.202 143.236C125.182 143.236 126.003 142.849 126.666 142.074L128.122 143.418C127.655 143.987 127.076 144.421 126.386 144.72C125.695 145.019 124.925 145.168 124.076 145.168ZM138.641 135.2V145H136.373V140.982H131.921V145H129.653V135.2H131.921V139.064H136.373V135.2H138.641Z" fill="white"/>
<path d="M583.796 139.904C584.356 140.081 584.794 140.38 585.112 140.8C585.429 141.211 585.588 141.719 585.588 142.326C585.588 143.185 585.252 143.847 584.58 144.314C583.917 144.771 582.946 145 581.668 145H576.6V135.2H581.388C582.582 135.2 583.497 135.429 584.132 135.886C584.776 136.343 585.098 136.964 585.098 137.748C585.098 138.224 584.981 138.649 584.748 139.022C584.524 139.395 584.206 139.689 583.796 139.904ZM578.854 136.908V139.218H581.108C581.668 139.218 582.092 139.12 582.382 138.924C582.671 138.728 582.816 138.439 582.816 138.056C582.816 137.673 582.671 137.389 582.382 137.202C582.092 137.006 581.668 136.908 581.108 136.908H578.854ZM581.5 143.292C582.097 143.292 582.545 143.194 582.844 142.998C583.152 142.802 583.306 142.499 583.306 142.088C583.306 141.276 582.704 140.87 581.5 140.87H578.854V143.292H581.5ZM587.305 135.2H589.573V143.152H594.487V145H587.305V135.2ZM599.985 145.168C598.585 145.168 597.493 144.781 596.709 144.006C595.934 143.231 595.547 142.125 595.547 140.688V135.2H597.815V140.604C597.815 142.359 598.543 143.236 599.999 143.236C600.708 143.236 601.249 143.026 601.623 142.606C601.996 142.177 602.183 141.509 602.183 140.604V135.2H604.423V140.688C604.423 142.125 604.031 143.231 603.247 144.006C602.472 144.781 601.385 145.168 599.985 145.168ZM614.252 143.18V145H606.664V135.2H614.07V137.02H608.918V139.148H613.468V140.912H608.918V143.18H614.252ZM620.299 135.2C621.167 135.2 621.918 135.345 622.553 135.634C623.197 135.923 623.691 136.334 624.037 136.866C624.382 137.398 624.555 138.028 624.555 138.756C624.555 139.475 624.382 140.105 624.037 140.646C623.691 141.178 623.197 141.589 622.553 141.878C621.918 142.158 621.167 142.298 620.299 142.298H618.325V145H616.057V135.2H620.299ZM620.173 140.45C620.854 140.45 621.372 140.305 621.727 140.016C622.081 139.717 622.259 139.297 622.259 138.756C622.259 138.205 622.081 137.785 621.727 137.496C621.372 137.197 620.854 137.048 620.173 137.048H618.325V140.45H620.173ZM632.418 145L630.528 142.27H630.416H628.442V145H626.174V135.2H630.416C631.284 135.2 632.035 135.345 632.67 135.634C633.314 135.923 633.808 136.334 634.154 136.866C634.499 137.398 634.672 138.028 634.672 138.756C634.672 139.484 634.494 140.114 634.14 140.646C633.794 141.169 633.3 141.57 632.656 141.85L634.854 145H632.418ZM632.376 138.756C632.376 138.205 632.198 137.785 631.844 137.496C631.489 137.197 630.971 137.048 630.29 137.048H628.442V140.464H630.29C630.971 140.464 631.489 140.315 631.844 140.016C632.198 139.717 632.376 139.297 632.376 138.756ZM636.469 135.2H638.737V145H636.469V135.2ZM650.05 135.2V145H648.188L643.302 139.05V145H641.062V135.2H642.938L647.81 141.15V135.2H650.05ZM654.399 137.048H651.263V135.2H659.803V137.048H656.667V145H654.399V137.048ZM661.023 135.2H663.291V145H661.023V135.2ZM674.605 135.2V145H672.743L667.857 139.05V145H665.617V135.2H667.493L672.365 141.15V135.2H674.605ZM683.546 139.946H685.618V143.922C685.086 144.323 684.47 144.631 683.77 144.846C683.07 145.061 682.365 145.168 681.656 145.168C680.638 145.168 679.724 144.953 678.912 144.524C678.1 144.085 677.46 143.483 676.994 142.718C676.536 141.943 676.308 141.071 676.308 140.1C676.308 139.129 676.536 138.261 676.994 137.496C677.46 136.721 678.104 136.119 678.926 135.69C679.747 135.251 680.671 135.032 681.698 135.032C682.556 135.032 683.336 135.177 684.036 135.466C684.736 135.755 685.324 136.175 685.8 136.726L684.344 138.07C683.644 137.333 682.799 136.964 681.81 136.964C681.184 136.964 680.629 137.095 680.144 137.356C679.658 137.617 679.28 137.986 679.01 138.462C678.739 138.938 678.604 139.484 678.604 140.1C678.604 140.707 678.739 141.248 679.01 141.724C679.28 142.2 679.654 142.573 680.13 142.844C680.615 143.105 681.166 143.236 681.782 143.236C682.435 143.236 683.023 143.096 683.546 142.816V139.946Z" fill="white"/>
<path d="M871.368 135.2H875.82C876.884 135.2 877.822 135.405 878.634 135.816C879.455 136.217 880.09 136.787 880.538 137.524C880.995 138.261 881.224 139.12 881.224 140.1C881.224 141.08 880.995 141.939 880.538 142.676C880.09 143.413 879.455 143.987 878.634 144.398C877.822 144.799 876.884 145 875.82 145H871.368V135.2ZM875.708 143.138C876.688 143.138 877.467 142.867 878.046 142.326C878.634 141.775 878.928 141.033 878.928 140.1C878.928 139.167 878.634 138.429 878.046 137.888C877.467 137.337 876.688 137.062 875.708 137.062H873.636V143.138H875.708ZM890.522 143.18V145H882.934V135.2H890.34V137.02H885.188V139.148H889.738V140.912H885.188V143.18H890.522ZM895.547 145.168C894.772 145.168 894.021 145.065 893.293 144.86C892.574 144.645 891.996 144.37 891.557 144.034L892.327 142.326C892.747 142.634 893.246 142.881 893.825 143.068C894.404 143.255 894.982 143.348 895.561 143.348C896.205 143.348 896.681 143.255 896.989 143.068C897.297 142.872 897.451 142.615 897.451 142.298C897.451 142.065 897.358 141.873 897.171 141.724C896.994 141.565 896.76 141.439 896.471 141.346C896.191 141.253 895.808 141.15 895.323 141.038C894.576 140.861 893.965 140.683 893.489 140.506C893.013 140.329 892.602 140.044 892.257 139.652C891.921 139.26 891.753 138.737 891.753 138.084C891.753 137.515 891.907 137.001 892.215 136.544C892.523 136.077 892.985 135.709 893.601 135.438C894.226 135.167 894.987 135.032 895.883 135.032C896.508 135.032 897.12 135.107 897.717 135.256C898.314 135.405 898.837 135.62 899.285 135.9L898.585 137.622C897.68 137.109 896.774 136.852 895.869 136.852C895.234 136.852 894.763 136.955 894.455 137.16C894.156 137.365 894.007 137.636 894.007 137.972C894.007 138.308 894.18 138.56 894.525 138.728C894.88 138.887 895.416 139.045 896.135 139.204C896.882 139.381 897.493 139.559 897.969 139.736C898.445 139.913 898.851 140.193 899.187 140.576C899.532 140.959 899.705 141.477 899.705 142.13C899.705 142.69 899.546 143.203 899.229 143.67C898.921 144.127 898.454 144.491 897.829 144.762C897.204 145.033 896.443 145.168 895.547 145.168ZM901.255 135.2H903.523V145H901.255V135.2ZM912.471 139.946H914.543V143.922C914.011 144.323 913.395 144.631 912.695 144.846C911.995 145.061 911.29 145.168 910.581 145.168C909.563 145.168 908.649 144.953 907.837 144.524C907.025 144.085 906.385 143.483 905.919 142.718C905.461 141.943 905.233 141.071 905.233 140.1C905.233 139.129 905.461 138.261 905.919 137.496C906.385 136.721 907.029 136.119 907.851 135.69C908.672 135.251 909.596 135.032 910.623 135.032C911.481 135.032 912.261 135.177 912.961 135.466C913.661 135.755 914.249 136.175 914.725 136.726L913.269 138.07C912.569 137.333 911.724 136.964 910.735 136.964C910.109 136.964 909.554 137.095 909.069 137.356C908.583 137.617 908.205 137.986 907.935 138.462C907.664 138.938 907.529 139.484 907.529 140.1C907.529 140.707 907.664 141.248 907.935 141.724C908.205 142.2 908.579 142.573 909.055 142.844C909.54 143.105 910.091 143.236 910.707 143.236C911.36 143.236 911.948 143.096 912.471 142.816V139.946ZM925.637 135.2V145H923.775L918.889 139.05V145H916.649V135.2H918.525L923.397 141.15V135.2H925.637Z" fill="white"/>
<path d="M333.333 113.2C334.201 113.2 334.952 113.345 335.587 113.634C336.231 113.923 336.725 114.334 337.071 114.866C337.416 115.398 337.589 116.028 337.589 116.756C337.589 117.475 337.416 118.105 337.071 118.646C336.725 119.178 336.231 119.589 335.587 119.878C334.952 120.158 334.201 120.298 333.333 120.298H331.359V123H329.091V113.2H333.333ZM333.207 118.45C333.888 118.45 334.406 118.305 334.761 118.016C335.115 117.717 335.293 117.297 335.293 116.756C335.293 116.205 335.115 115.785 334.761 115.496C334.406 115.197 333.888 115.048 333.207 115.048H331.359V118.45H333.207ZM345.452 123L343.562 120.27H343.45H341.476V123H339.208V113.2H343.45C344.318 113.2 345.069 113.345 345.704 113.634C346.348 113.923 346.843 114.334 347.188 114.866C347.533 115.398 347.706 116.028 347.706 116.756C347.706 117.484 347.529 118.114 347.174 118.646C346.829 119.169 346.334 119.57 345.69 119.85L347.888 123H345.452ZM345.41 116.756C345.41 116.205 345.233 115.785 344.878 115.496C344.523 115.197 344.005 115.048 343.324 115.048H341.476V118.464H343.324C344.005 118.464 344.523 118.315 344.878 118.016C345.233 117.717 345.41 117.297 345.41 116.756ZM354.249 123.168C353.231 123.168 352.312 122.949 351.491 122.51C350.679 122.071 350.039 121.469 349.573 120.704C349.115 119.929 348.887 119.061 348.887 118.1C348.887 117.139 349.115 116.275 349.573 115.51C350.039 114.735 350.679 114.129 351.491 113.69C352.312 113.251 353.231 113.032 354.249 113.032C355.266 113.032 356.181 113.251 356.993 113.69C357.805 114.129 358.444 114.735 358.911 115.51C359.377 116.275 359.611 117.139 359.611 118.1C359.611 119.061 359.377 119.929 358.911 120.704C358.444 121.469 357.805 122.071 356.993 122.51C356.181 122.949 355.266 123.168 354.249 123.168ZM354.249 121.236C354.827 121.236 355.35 121.105 355.817 120.844C356.283 120.573 356.647 120.2 356.909 119.724C357.179 119.248 357.315 118.707 357.315 118.1C357.315 117.493 357.179 116.952 356.909 116.476C356.647 116 356.283 115.631 355.817 115.37C355.35 115.099 354.827 114.964 354.249 114.964C353.67 114.964 353.147 115.099 352.681 115.37C352.214 115.631 351.845 116 351.575 116.476C351.313 116.952 351.183 117.493 351.183 118.1C351.183 118.707 351.313 119.248 351.575 119.724C351.845 120.2 352.214 120.573 352.681 120.844C353.147 121.105 353.67 121.236 354.249 121.236ZM368.511 117.904C369.071 118.081 369.51 118.38 369.827 118.8C370.145 119.211 370.303 119.719 370.303 120.326C370.303 121.185 369.967 121.847 369.295 122.314C368.633 122.771 367.662 123 366.383 123H361.315V113.2H366.103C367.298 113.2 368.213 113.429 368.847 113.886C369.491 114.343 369.813 114.964 369.813 115.748C369.813 116.224 369.697 116.649 369.463 117.022C369.239 117.395 368.922 117.689 368.511 117.904ZM363.569 114.908V117.218H365.823C366.383 117.218 366.808 117.12 367.097 116.924C367.387 116.728 367.531 116.439 367.531 116.056C367.531 115.673 367.387 115.389 367.097 115.202C366.808 115.006 366.383 114.908 365.823 114.908H363.569ZM366.215 121.292C366.813 121.292 367.261 121.194 367.559 120.998C367.867 120.802 368.021 120.499 368.021 120.088C368.021 119.276 367.419 118.87 366.215 118.87H363.569V121.292H366.215ZM372.02 113.2H374.288V121.152H379.202V123H372.02V113.2ZM388.058 121.18V123H380.47V113.2H387.876V115.02H382.724V117.148H387.274V118.912H382.724V121.18H388.058ZM398.78 123L398.766 117.12L395.882 121.964H394.86L391.99 117.246V123H389.862V113.2H391.738L395.406 119.29L399.018 113.2H400.88L400.908 123H398.78ZM325.406 145.168C324.632 145.168 323.88 145.065 323.152 144.86C322.434 144.645 321.855 144.37 321.416 144.034L322.186 142.326C322.606 142.634 323.106 142.881 323.684 143.068C324.263 143.255 324.842 143.348 325.42 143.348C326.064 143.348 326.54 143.255 326.848 143.068C327.156 142.872 327.31 142.615 327.31 142.298C327.31 142.065 327.217 141.873 327.03 141.724C326.853 141.565 326.62 141.439 326.33 141.346C326.05 141.253 325.668 141.15 325.182 141.038C324.436 140.861 323.824 140.683 323.348 140.506C322.872 140.329 322.462 140.044 322.116 139.652C321.78 139.26 321.612 138.737 321.612 138.084C321.612 137.515 321.766 137.001 322.074 136.544C322.382 136.077 322.844 135.709 323.46 135.438C324.086 135.167 324.846 135.032 325.742 135.032C326.368 135.032 326.979 135.107 327.576 135.256C328.174 135.405 328.696 135.62 329.144 135.9L328.444 137.622C327.539 137.109 326.634 136.852 325.728 136.852C325.094 136.852 324.622 136.955 324.314 137.16C324.016 137.365 323.866 137.636 323.866 137.972C323.866 138.308 324.039 138.56 324.384 138.728C324.739 138.887 325.276 139.045 325.994 139.204C326.741 139.381 327.352 139.559 327.828 139.736C328.304 139.913 328.71 140.193 329.046 140.576C329.392 140.959 329.564 141.477 329.564 142.13C329.564 142.69 329.406 143.203 329.088 143.67C328.78 144.127 328.314 144.491 327.688 144.762C327.063 145.033 326.302 145.168 325.406 145.168ZM333.007 137.048H329.871V135.2H338.411V137.048H335.275V145H333.007V137.048ZM345.594 142.9H341.044L340.176 145H337.852L342.22 135.2H344.46L348.842 145H346.462L345.594 142.9ZM344.88 141.178L343.326 137.426L341.772 141.178H344.88ZM351.396 137.048H348.26V135.2H356.8V137.048H353.664V145H351.396V137.048ZM365.608 143.18V145H358.02V135.2H365.426V137.02H360.274V139.148H364.824V140.912H360.274V143.18H365.608ZM376.331 145L376.317 139.12L373.433 143.964H372.411L369.541 139.246V145H367.413V135.2H369.289L372.957 141.29L376.569 135.2H378.431L378.459 145H376.331ZM388.372 143.18V145H380.784V135.2H388.19V137.02H383.038V139.148H387.588V140.912H383.038V143.18H388.372ZM399.165 135.2V145H397.303L392.417 139.05V145H390.177V135.2H392.053L396.925 141.15V135.2H399.165ZM403.513 137.048H400.377V135.2H408.917V137.048H405.781V145H403.513V137.048ZM322.781 157.2H327.233C328.297 157.2 329.235 157.405 330.047 157.816C330.868 158.217 331.503 158.787 331.951 159.524C332.408 160.261 332.637 161.12 332.637 162.1C332.637 163.08 332.408 163.939 331.951 164.676C331.503 165.413 330.868 165.987 330.047 166.398C329.235 166.799 328.297 167 327.233 167H322.781V157.2ZM327.121 165.138C328.101 165.138 328.88 164.867 329.459 164.326C330.047 163.775 330.341 163.033 330.341 162.1C330.341 161.167 330.047 160.429 329.459 159.888C328.88 159.337 328.101 159.062 327.121 159.062H325.049V165.138H327.121ZM341.936 165.18V167H334.348V157.2H341.754V159.02H336.602V161.148H341.152V162.912H336.602V165.18H341.936ZM346.008 159.02V161.61H350.544V163.43H346.008V167H343.74V157.2H351.146V159.02H346.008ZM352.682 157.2H354.95V167H352.682V157.2ZM366.263 157.2V167H364.401L359.515 161.05V167H357.275V157.2H359.151L364.023 163.15V157.2H366.263ZM368.582 157.2H370.85V167H368.582V157.2ZM375.206 159.048H372.07V157.2H380.61V159.048H377.474V167H375.206V159.048ZM381.83 157.2H384.098V167H381.83V157.2ZM391.17 167.168C390.152 167.168 389.233 166.949 388.412 166.51C387.6 166.071 386.96 165.469 386.494 164.704C386.036 163.929 385.808 163.061 385.808 162.1C385.808 161.139 386.036 160.275 386.494 159.51C386.96 158.735 387.6 158.129 388.412 157.69C389.233 157.251 390.152 157.032 391.17 157.032C392.187 157.032 393.102 157.251 393.914 157.69C394.726 158.129 395.365 158.735 395.832 159.51C396.298 160.275 396.532 161.139 396.532 162.1C396.532 163.061 396.298 163.929 395.832 164.704C395.365 165.469 394.726 166.071 393.914 166.51C393.102 166.949 392.187 167.168 391.17 167.168ZM391.17 165.236C391.748 165.236 392.271 165.105 392.738 164.844C393.204 164.573 393.568 164.2 393.83 163.724C394.1 163.248 394.236 162.707 394.236 162.1C394.236 161.493 394.1 160.952 393.83 160.476C393.568 160 393.204 159.631 392.738 159.37C392.271 159.099 391.748 158.964 391.17 158.964C390.591 158.964 390.068 159.099 389.602 159.37C389.135 159.631 388.766 160 388.496 160.476C388.234 160.952 388.104 161.493 388.104 162.1C388.104 162.707 388.234 163.248 388.496 163.724C388.766 164.2 389.135 164.573 389.602 164.844C390.068 165.105 390.591 165.236 391.17 165.236ZM407.224 157.2V167H405.362L400.476 161.05V167H398.236V157.2H400.112L404.984 163.15V157.2H407.224Z" fill="white"/>
</svg>
