<svg width="80" height="81" viewBox="0 0 80 81" fill="none" xmlns="http://www.w3.org/2000/svg">
<path d="M46.7511 42.595L46.8029 42.3537L46.6429 42.1659C42.0904 36.8221 39.0463 30.318 39.5556 23.0604C39.9219 17.8386 42.0048 14.2569 44.9765 11.9528C47.9621 9.63793 51.8927 8.57669 55.9989 8.50402C60.1031 8.43137 64.3445 9.34786 67.9107 10.9447C71.4866 12.5458 74.3258 14.8038 75.7027 17.3703C78.5373 22.6538 79.8162 32.0964 79.4339 40.5025C79.2431 44.696 78.6404 48.5881 77.6339 51.5362C77.1306 53.0105 76.5333 54.2277 75.8522 55.1258C75.1715 56.0233 74.4289 56.5748 73.6355 56.7793C72.2832 57.1279 70.0589 56.886 67.3048 56.0289C64.5749 55.1793 61.4019 53.75 58.1935 51.8161L57.2932 51.2734L57.4403 52.3143L61.4244 80.5H38.6187L46.7511 42.595Z" fill="white" stroke="black"/>
<path fill-rule="evenodd" clip-rule="evenodd" d="M78.4091 21.9836C78.1714 20.5836 77.5904 19.0288 77.1216 17.7043C76.5172 15.9967 75.6025 14.4571 74.5959 13.0061C72.7009 10.2744 70.4276 7.80749 67.9176 5.76006C63.3328 2.02023 57.4966 -0.136915 51.7574 0.563621C48.8597 0.917296 46.0468 2.02262 43.6525 3.86238C41.4894 5.52461 39.4087 7.97155 36.6077 8.14737C33.56 8.33851 30.7662 5.64847 28.322 3.98708C25.566 2.1141 22.6342 0.749318 19.4132 0.218805C14.0173 -0.669642 8.94822 1.15342 5.22944 5.58049C1.27215 10.2916 -1.60449 17.2003 0.994282 23.4425C1.47734 24.6028 2.09879 25.581 2.99067 26.3918C3.80863 27.1353 5.05788 27.9263 5.38953 29.1142C5.74179 30.3769 4.68951 32.006 4.28146 33.1454C3.69689 34.7778 3.21693 36.4913 3.38756 38.2656C3.66791 41.1795 5.4991 43.9612 7.43272 45.8765C9.40044 47.8254 11.8222 48.943 14.4089 49.4582C16.1361 49.8022 17.9013 49.992 19.6567 49.8628C20.5281 49.7988 21.2971 49.5567 22.1414 49.3642C22.9625 49.1769 23.4213 49.395 24.1179 49.8453C27.354 51.9373 30.8335 52.7467 34.5701 52.4357C37.7237 52.173 41.3584 51.4087 43.931 49.248C46.788 46.8482 46.7311 43.5391 46.0588 40.0035C46.7711 40.3565 48.7416 40.5751 47.5641 39.1681C47.0976 38.6108 46.2163 38.384 45.6178 38.0563C44.9209 37.6747 44.2132 37.1814 43.6721 36.5589C41.4869 34.0454 43.6939 28.93 46.4404 28.0871C50.5209 26.8347 51.4345 32.6055 54.3474 34.0982C56.0222 34.9565 57.7742 33.7834 59.029 32.5855C60.7099 30.9809 61.8554 28.8551 62.8445 26.6918C63.6592 24.9103 64.4173 23.1038 65.2477 21.3311C65.6354 20.5033 66.9778 18.1632 66.3037 17.2272C69.2264 16.6444 72.4816 17.859 74.9987 19.4517C76.0391 20.1101 76.8322 20.8361 77.3872 21.9985C77.5061 22.2475 77.7649 22.9879 78.0899 23.0183C78.6949 23.0748 78.4688 22.3354 78.4091 21.9836Z" fill="black"/>
</svg>
