<svg width="105" height="16" viewBox="0 0 105 16" fill="none" xmlns="http://www.w3.org/2000/svg">
<path d="M1 7C0.447715 7 0 7.44772 0 8C0 8.55228 0.447715 9 1 9V7ZM104.707 8.70711C105.098 8.31658 105.098 7.68342 104.707 7.29289L98.3431 0.928932C97.9526 0.538408 97.3195 0.538408 96.9289 0.928932C96.5384 1.31946 96.5384 1.95262 96.9289 2.34315L102.586 8L96.9289 13.6569C96.5384 14.0474 96.5384 14.6805 96.9289 15.0711C97.3195 15.4616 97.9526 15.4616 98.3431 15.0711L104.707 8.70711ZM1 9H104V7H1V9Z" fill="#333333"/>
</svg>
