<svg width="841" height="55" viewBox="0 0 841 55" fill="none" xmlns="http://www.w3.org/2000/svg">
<path d="M7.29289 54.7071C7.68342 55.0976 8.31658 55.0976 8.70711 54.7071L15.0711 48.3431C15.4616 47.9526 15.4616 47.3195 15.0711 46.9289C14.6805 46.5384 14.0474 46.5384 13.6569 46.9289L8 52.5858L2.34315 46.9289C1.95262 46.5384 1.31946 46.5384 0.928932 46.9289C0.538408 47.3195 0.538408 47.9526 0.928932 48.3431L7.29289 54.7071ZM839 54C839 54.5523 839.448 55 840 55C840.552 55 841 54.5523 841 54H839ZM9 54V52.0417H7V54H9ZM9 48.125V44.2083H7V48.125H9ZM9 40.2917V36.375H7V40.2917H9ZM9 32.4583V28.5417H7V32.4583H9ZM9 24.625V20.7083H7V24.625H9ZM9 16.7917V12.875H7V16.7917H9ZM9 8.95833V7H7V8.95833H9ZM9 7C9 6.3202 9.13511 5.67448 9.37901 5.08633L7.53156 4.32022C7.18872 5.14696 7 6.0527 7 7H9ZM12.0863 2.37901C12.6745 2.13511 13.3202 2 14 2V0C13.0527 0 12.147 0.188721 11.3202 0.531556L12.0863 2.37901ZM14 2H15.9903V0H14V2ZM19.9709 2H23.9515V0H19.9709V2ZM27.932 2H31.9126V0H27.932V2ZM35.8932 2H39.8738V0H35.8932V2ZM43.8544 2H47.835V0H43.8544V2ZM51.8155 2H55.7961V0H51.8155V2ZM59.7767 2H63.7573V0H59.7767V2ZM67.7379 2H71.7184V0H67.7379V2ZM75.699 2H79.6796V0H75.699V2ZM83.6602 2H87.6408V0H83.6602V2ZM91.6214 2H95.602V0H91.6214V2ZM99.5825 2H103.563V0H99.5825V2ZM107.544 2H111.524V0H107.544V2ZM115.505 2H119.485V0H115.505V2ZM123.466 2H127.447V0H123.466V2ZM131.427 2H135.408V0H131.427V2ZM139.388 2H143.369V0H139.388V2ZM147.35 2H151.33V0H147.35V2ZM155.311 2H159.291V0H155.311V2ZM163.272 2H167.252V0H163.272V2ZM171.233 2H175.214V0H171.233V2ZM179.194 2H183.175V0H179.194V2ZM187.155 2H191.136V0H187.155V2ZM195.116 2H199.097V0H195.116V2ZM203.078 2H207.058V0H203.078V2ZM211.039 2H215.019V0H211.039V2ZM219 2H222.98V0H219V2ZM226.961 2H230.942V0H226.961V2ZM234.922 2H238.903V0H234.922V2ZM242.883 2H246.864V0H242.883V2ZM250.844 2H254.825V0H250.844V2ZM258.806 2H262.786V0H258.806V2ZM266.767 2H270.747V0H266.767V2ZM274.728 2H278.709V0H274.728V2ZM282.689 2H286.67V0H282.689V2ZM290.65 2H294.631V0H290.65V2ZM298.612 2H302.592V0H298.612V2ZM306.573 2H310.553V0H306.573V2ZM314.534 2H318.514V0H314.534V2ZM322.495 2H326.476V0H322.495V2ZM330.456 2H334.437V0H330.456V2ZM338.417 2H342.398V0H338.417V2ZM346.379 2H350.359V0H346.379V2ZM354.34 2H358.32V0H354.34V2ZM362.301 2H366.282V0H362.301V2ZM370.262 2H374.243V0H370.262V2ZM378.223 2H382.204V0H378.223V2ZM386.185 2H390.165V0H386.185V2ZM394.146 2H398.126V0H394.146V2ZM402.107 2H406.087V0H402.107V2ZM410.068 2H414.049V0H410.068V2ZM418.029 2H422.01V0H418.029V2ZM425.99 2H429.971V0H425.99V2ZM433.952 2H437.932V0H433.952V2ZM441.913 2H445.893V0H441.913V2ZM449.874 2H453.855V0H449.874V2ZM457.835 2H461.816V0H457.835V2ZM465.796 2H469.777V0H465.796V2ZM473.758 2H477.738V0H473.758V2ZM481.719 2H485.699V0H481.719V2ZM489.68 2H493.66V0H489.68V2ZM497.641 2H501.622V0H497.641V2ZM505.602 2H509.583V0H505.602V2ZM513.563 2H517.544V0H513.563V2ZM521.525 2H525.505V0H521.525V2ZM529.486 2H533.466V0H529.486V2ZM537.447 2H541.428V0H537.447V2ZM545.408 2H549.389V0H545.408V2ZM553.369 2H557.35V0H553.369V2ZM561.331 2H565.311V0H561.331V2ZM569.292 2H573.272V0H569.292V2ZM577.253 2H581.233V0H577.253V2ZM585.214 2H589.195V0H585.214V2ZM593.175 2H597.156V0H593.175V2ZM601.136 2H605.117V0H601.136V2ZM609.098 2H613.078V0H609.098V2ZM617.059 2H621.039V0H617.059V2ZM625.02 2H629.001V0H625.02V2ZM632.981 2H636.962V0H632.981V2ZM640.942 2H644.923V0H640.942V2ZM648.904 2H652.884V0H648.904V2ZM656.865 2H660.845V0H656.865V2ZM664.826 2H668.806V0H664.826V2ZM672.787 2H676.768V0H672.787V2ZM680.748 2H684.729V0H680.748V2ZM688.709 2H692.69V0H688.709V2ZM696.671 2H700.651V0H696.671V2ZM704.632 2H708.612V0H704.632V2ZM712.593 2H716.573V0H712.593V2ZM720.554 2H724.535V0H720.554V2ZM728.515 2H732.496V0H728.515V2ZM736.476 2H740.457V0H736.476V2ZM744.438 2H748.418V0H744.438V2ZM752.399 2H756.379V0H752.399V2ZM760.36 2H764.341V0H760.36V2ZM768.321 2H772.302V0H768.321V2ZM776.282 2H780.263V0H776.282V2ZM784.244 2H788.224V0H784.244V2ZM792.205 2H796.185V0H792.205V2ZM800.166 2H804.147V0H800.166V2ZM808.127 2H812.108V0H808.127V2ZM816.088 2H820.069V0H816.088V2ZM824.049 2H828.03V0H824.049V2ZM832.011 2H834V0H832.011V2ZM834 2C834.68 2 835.326 2.13511 835.914 2.37901L836.68 0.531557C835.853 0.188721 834.947 0 834 0V2ZM838.621 5.08633C838.865 5.67448 839 6.3202 839 7H841C841 6.0527 840.811 5.14696 840.468 4.32021L838.621 5.08633ZM839 7V8.95833H841V7H839ZM839 12.875V16.7917H841V12.875H839ZM839 20.7083V24.625H841V20.7083H839ZM839 28.5417V32.4583H841V28.5417H839ZM839 36.375V40.2917H841V36.375H839ZM839 44.2083V48.125H841V44.2083H839ZM839 52.0417V54H841V52.0417H839Z" fill="#333333"/>
</svg>
