<svg width="867" height="172" viewBox="0 0 867 172" fill="none" xmlns="http://www.w3.org/2000/svg">
<g filter="url(#filter0_d_2709_51694)">
<rect x="16" y="16.6289" width="100" height="100" rx="10" fill="white"/>
</g>
<g filter="url(#filter1_d_2709_51694)">
<rect x="501" y="16.6289" width="100" height="100" rx="10" fill="#E0C3FC"/>
</g>
<g filter="url(#filter2_d_2709_51694)">
<rect x="141" y="16.6289" width="100" height="100" rx="10" fill="#0BCCCE"/>
</g>
<g filter="url(#filter3_d_2709_51694)">
<rect x="626" y="16.6289" width="100" height="100" rx="10" fill="#4091DA"/>
</g>
<g filter="url(#filter4_d_2709_51694)">
<rect x="266" y="16.6289" width="100" height="100" rx="10" fill="black"/>
</g>
<g filter="url(#filter5_d_2709_51694)">
<rect x="751" y="16.6289" width="100" height="100" rx="10" fill="#7164DA"/>
</g>
<path d="M32.9922 145.429L30.7922 158.629H29.4322L31.6322 145.429H32.9922ZM33.9922 153.709V154.929H22.8922V153.709H33.9922ZM28.3122 145.429L26.1122 158.629H24.7522L26.9522 145.429H28.3122ZM34.8722 149.109V150.329H23.7722V149.109H34.8722ZM46.6656 146.929H39.0256V151.189H44.9856V152.689H39.0256V158.629H37.4256V145.429H46.6656V146.929ZM58.8727 146.929H51.2327V151.189H57.1927V152.689H51.2327V158.629H49.6327V145.429H58.8727V146.929ZM71.0797 146.929H63.4397V151.189H69.3997V152.689H63.4397V158.629H61.8397V145.429H71.0797V146.929ZM83.2867 146.929H75.6467V151.189H81.6067V152.689H75.6467V158.629H74.0467V145.429H83.2867V146.929ZM95.4938 146.929H87.8538V151.189H93.8138V152.689H87.8538V158.629H86.2538V145.429H95.4938V146.929ZM107.701 146.929H100.061V151.189H106.021V152.689H100.061V158.629H98.4608V145.429H107.701V146.929Z" fill="#333333"/>
<path d="M517.592 145.429L515.392 158.629H514.032L516.232 145.429H517.592ZM518.592 153.709V154.929H507.492V153.709H518.592ZM512.912 145.429L510.712 158.629H509.352L511.552 145.429H512.912ZM519.472 149.109V150.329H508.372V149.109H519.472ZM522.025 158.629V145.429H531.285V146.929H523.625V151.189H529.585V152.689H523.625V157.129H531.585V158.629H522.025ZM538.839 158.829C537.346 158.829 536.152 158.249 535.259 157.089C534.366 155.929 533.919 154.242 533.919 152.029C533.919 149.816 534.366 148.129 535.259 146.969C536.152 145.809 537.346 145.229 538.839 145.229C540.346 145.229 541.539 145.809 542.419 146.969C543.312 148.129 543.759 149.816 543.759 152.029C543.759 154.242 543.312 155.929 542.419 157.089C541.539 158.249 540.346 158.829 538.839 158.829ZM538.839 157.389C539.546 157.389 540.139 157.189 540.619 156.789C541.112 156.376 541.479 155.769 541.719 154.969C541.972 154.169 542.099 153.189 542.099 152.029C542.099 150.869 541.972 149.889 541.719 149.089C541.479 148.289 541.112 147.689 540.619 147.289C540.139 146.876 539.546 146.669 538.839 146.669C538.132 146.669 537.532 146.876 537.039 147.289C536.559 147.689 536.192 148.289 535.939 149.089C535.699 149.889 535.579 150.869 535.579 152.029C535.579 153.189 535.699 154.169 535.939 154.969C536.192 155.769 536.559 156.376 537.039 156.789C537.532 157.189 538.132 157.389 538.839 157.389ZM550.47 158.829C549.297 158.829 548.257 158.556 547.35 158.009C546.457 157.449 545.85 156.682 545.53 155.709L547.13 154.889C547.29 155.382 547.51 155.816 547.79 156.189C548.07 156.549 548.437 156.829 548.89 157.029C549.357 157.229 549.937 157.329 550.63 157.329C551.217 157.329 551.71 157.222 552.11 157.009C552.51 156.796 552.817 156.509 553.03 156.149C553.243 155.776 553.35 155.349 553.35 154.869C553.35 154.389 553.257 153.989 553.07 153.669C552.897 153.349 552.617 153.116 552.23 152.969C551.843 152.809 551.337 152.729 550.71 152.729C550.563 152.729 550.403 152.736 550.23 152.749C550.057 152.749 549.877 152.762 549.69 152.789V151.189C549.81 151.202 549.923 151.209 550.03 151.209C550.15 151.209 550.257 151.209 550.35 151.209C551.323 151.209 552.017 151.022 552.43 150.649C552.843 150.262 553.05 149.662 553.05 148.849C553.05 148.156 552.837 147.629 552.41 147.269C551.983 146.909 551.377 146.729 550.59 146.729C549.75 146.729 549.11 146.916 548.67 147.289C548.23 147.649 547.883 148.142 547.63 148.769L546.11 148.049C546.323 147.489 546.643 146.996 547.07 146.569C547.497 146.142 548.01 145.809 548.61 145.569C549.223 145.329 549.897 145.209 550.63 145.209C551.55 145.209 552.31 145.369 552.91 145.689C553.51 145.996 553.957 146.409 554.25 146.929C554.557 147.449 554.71 148.022 554.71 148.649C554.71 149.129 554.643 149.562 554.51 149.949C554.377 150.322 554.19 150.649 553.95 150.929C553.723 151.209 553.463 151.436 553.17 151.609C552.877 151.769 552.563 151.876 552.23 151.929V151.969C552.67 151.982 553.057 152.069 553.39 152.229C553.737 152.389 554.03 152.602 554.27 152.869C554.51 153.136 554.69 153.442 554.81 153.789C554.943 154.122 555.01 154.476 555.01 154.849C555.01 155.622 554.817 156.309 554.43 156.909C554.057 157.509 553.53 157.982 552.85 158.329C552.17 158.662 551.377 158.829 550.47 158.829ZM569.13 155.249C568.85 155.996 568.45 156.642 567.93 157.189C567.41 157.722 566.797 158.129 566.09 158.409C565.397 158.689 564.637 158.829 563.81 158.829C562.557 158.829 561.47 158.556 560.55 158.009C559.643 157.449 558.937 156.662 558.43 155.649C557.937 154.636 557.69 153.429 557.69 152.029C557.69 150.629 557.937 149.422 558.43 148.409C558.937 147.396 559.643 146.616 560.55 146.069C561.47 145.509 562.543 145.229 563.77 145.229C564.623 145.229 565.383 145.349 566.05 145.589C566.717 145.816 567.283 146.162 567.75 146.629C568.23 147.082 568.61 147.642 568.89 148.309L567.31 149.049C567.017 148.289 566.59 147.716 566.03 147.329C565.483 146.929 564.77 146.729 563.89 146.729C562.997 146.729 562.21 146.942 561.53 147.369C560.85 147.782 560.317 148.382 559.93 149.169C559.557 149.956 559.37 150.909 559.37 152.029C559.37 153.136 559.55 154.089 559.91 154.889C560.27 155.676 560.783 156.282 561.45 156.709C562.117 157.122 562.903 157.329 563.81 157.329C564.69 157.329 565.457 157.109 566.11 156.669C566.763 156.216 567.237 155.542 567.53 154.649L569.13 155.249ZM581.441 146.929H573.801V151.189H579.761V152.689H573.801V158.629H572.201V145.429H581.441V146.929ZM588.048 158.829C586.875 158.829 585.835 158.556 584.928 158.009C584.035 157.449 583.428 156.682 583.108 155.709L584.708 154.889C584.868 155.382 585.088 155.816 585.368 156.189C585.648 156.549 586.015 156.829 586.468 157.029C586.935 157.229 587.515 157.329 588.208 157.329C588.795 157.329 589.288 157.222 589.688 157.009C590.088 156.796 590.395 156.509 590.608 156.149C590.821 155.776 590.928 155.349 590.928 154.869C590.928 154.389 590.835 153.989 590.648 153.669C590.475 153.349 590.195 153.116 589.808 152.969C589.421 152.809 588.915 152.729 588.288 152.729C588.141 152.729 587.981 152.736 587.808 152.749C587.635 152.749 587.455 152.762 587.268 152.789V151.189C587.388 151.202 587.501 151.209 587.608 151.209C587.728 151.209 587.835 151.209 587.928 151.209C588.901 151.209 589.595 151.022 590.008 150.649C590.421 150.262 590.628 149.662 590.628 148.849C590.628 148.156 590.415 147.629 589.988 147.269C589.561 146.909 588.955 146.729 588.168 146.729C587.328 146.729 586.688 146.916 586.248 147.289C585.808 147.649 585.461 148.142 585.208 148.769L583.688 148.049C583.901 147.489 584.221 146.996 584.648 146.569C585.075 146.142 585.588 145.809 586.188 145.569C586.801 145.329 587.475 145.209 588.208 145.209C589.128 145.209 589.888 145.369 590.488 145.689C591.088 145.996 591.535 146.409 591.828 146.929C592.135 147.449 592.288 148.022 592.288 148.649C592.288 149.129 592.221 149.562 592.088 149.949C591.955 150.322 591.768 150.649 591.528 150.929C591.301 151.209 591.041 151.436 590.748 151.609C590.455 151.769 590.141 151.876 589.808 151.929V151.969C590.248 151.982 590.635 152.069 590.968 152.229C591.315 152.389 591.608 152.602 591.848 152.869C592.088 153.136 592.268 153.442 592.388 153.789C592.521 154.122 592.588 154.476 592.588 154.849C592.588 155.622 592.395 156.309 592.008 156.909C591.635 157.509 591.108 157.982 590.428 158.329C589.748 158.662 588.955 158.829 588.048 158.829Z" fill="#333333"/>
<path d="M154.916 145.429L152.716 158.629H151.356L153.556 145.429H154.916ZM155.916 153.709V154.929H144.816V153.709H155.916ZM150.236 145.429L148.036 158.629H146.676L148.876 145.429H150.236ZM156.796 149.109V150.329H145.696V149.109H156.796ZM163.409 158.829C161.916 158.829 160.723 158.249 159.829 157.089C158.936 155.929 158.489 154.242 158.489 152.029C158.489 149.816 158.936 148.129 159.829 146.969C160.723 145.809 161.916 145.229 163.409 145.229C164.916 145.229 166.109 145.809 166.989 146.969C167.883 148.129 168.329 149.816 168.329 152.029C168.329 154.242 167.883 155.929 166.989 157.089C166.109 158.249 164.916 158.829 163.409 158.829ZM163.409 157.389C164.116 157.389 164.709 157.189 165.189 156.789C165.683 156.376 166.049 155.769 166.289 154.969C166.543 154.169 166.669 153.189 166.669 152.029C166.669 150.869 166.543 149.889 166.289 149.089C166.049 148.289 165.683 147.689 165.189 147.289C164.709 146.876 164.116 146.669 163.409 146.669C162.703 146.669 162.103 146.876 161.609 147.289C161.129 147.689 160.763 148.289 160.509 149.089C160.269 149.889 160.149 150.869 160.149 152.029C160.149 153.189 160.269 154.169 160.509 154.969C160.763 155.769 161.129 156.376 161.609 156.789C162.103 157.189 162.703 157.389 163.409 157.389ZM171.791 158.629V145.429H176.491C178.051 145.429 179.191 145.756 179.911 146.409C180.631 147.062 180.991 147.949 180.991 149.069C180.991 149.736 180.798 150.342 180.411 150.889C180.024 151.422 179.478 151.762 178.771 151.909V151.929C179.558 152.076 180.178 152.436 180.631 153.009C181.098 153.569 181.331 154.209 181.331 154.929C181.331 156.049 180.911 156.949 180.071 157.629C179.231 158.296 178.031 158.629 176.471 158.629H171.791ZM173.391 157.129H176.851C177.798 157.129 178.498 156.936 178.951 156.549C179.418 156.162 179.651 155.622 179.651 154.929C179.651 154.222 179.418 153.682 178.951 153.309C178.498 152.922 177.798 152.729 176.851 152.729H173.391V157.129ZM173.391 151.229H176.511C178.378 151.229 179.311 150.509 179.311 149.069C179.311 147.642 178.378 146.929 176.511 146.929H173.391V151.229ZM195.497 155.249C195.217 155.996 194.817 156.642 194.297 157.189C193.777 157.722 193.164 158.129 192.457 158.409C191.764 158.689 191.004 158.829 190.177 158.829C188.924 158.829 187.837 158.556 186.917 158.009C186.011 157.449 185.304 156.662 184.797 155.649C184.304 154.636 184.057 153.429 184.057 152.029C184.057 150.629 184.304 149.422 184.797 148.409C185.304 147.396 186.011 146.616 186.917 146.069C187.837 145.509 188.911 145.229 190.137 145.229C190.991 145.229 191.751 145.349 192.417 145.589C193.084 145.816 193.651 146.162 194.117 146.629C194.597 147.082 194.977 147.642 195.257 148.309L193.677 149.049C193.384 148.289 192.957 147.716 192.397 147.329C191.851 146.929 191.137 146.729 190.257 146.729C189.364 146.729 188.577 146.942 187.897 147.369C187.217 147.782 186.684 148.382 186.297 149.169C185.924 149.956 185.737 150.909 185.737 152.029C185.737 153.136 185.917 154.089 186.277 154.889C186.637 155.676 187.151 156.282 187.817 156.709C188.484 157.122 189.271 157.329 190.177 157.329C191.057 157.329 191.824 157.109 192.477 156.669C193.131 156.216 193.604 155.542 193.897 154.649L195.497 155.249ZM209.208 155.249C208.928 155.996 208.528 156.642 208.008 157.189C207.488 157.722 206.875 158.129 206.168 158.409C205.475 158.689 204.715 158.829 203.888 158.829C202.635 158.829 201.548 158.556 200.628 158.009C199.722 157.449 199.015 156.662 198.508 155.649C198.015 154.636 197.768 153.429 197.768 152.029C197.768 150.629 198.015 149.422 198.508 148.409C199.015 147.396 199.722 146.616 200.628 146.069C201.548 145.509 202.622 145.229 203.848 145.229C204.702 145.229 205.462 145.349 206.128 145.589C206.795 145.816 207.362 146.162 207.828 146.629C208.308 147.082 208.688 147.642 208.968 148.309L207.388 149.049C207.095 148.289 206.668 147.716 206.108 147.329C205.562 146.929 204.848 146.729 203.968 146.729C203.075 146.729 202.288 146.942 201.608 147.369C200.928 147.782 200.395 148.382 200.008 149.169C199.635 149.956 199.448 150.909 199.448 152.029C199.448 153.136 199.628 154.089 199.988 154.889C200.348 155.676 200.862 156.282 201.528 156.709C202.195 157.122 202.982 157.329 203.888 157.329C204.768 157.329 205.535 157.109 206.188 156.669C206.842 156.216 207.315 155.542 207.608 154.649L209.208 155.249ZM222.919 155.249C222.639 155.996 222.239 156.642 221.719 157.189C221.199 157.722 220.586 158.129 219.879 158.409C219.186 158.689 218.426 158.829 217.599 158.829C216.346 158.829 215.259 158.556 214.339 158.009C213.432 157.449 212.726 156.662 212.219 155.649C211.726 154.636 211.479 153.429 211.479 152.029C211.479 150.629 211.726 149.422 212.219 148.409C212.726 147.396 213.432 146.616 214.339 146.069C215.259 145.509 216.332 145.229 217.559 145.229C218.412 145.229 219.172 145.349 219.839 145.589C220.506 145.816 221.072 146.162 221.539 146.629C222.019 147.082 222.399 147.642 222.679 148.309L221.099 149.049C220.806 148.289 220.379 147.716 219.819 147.329C219.272 146.929 218.559 146.729 217.679 146.729C216.786 146.729 215.999 146.942 215.319 147.369C214.639 147.782 214.106 148.382 213.719 149.169C213.346 149.956 213.159 150.909 213.159 152.029C213.159 153.136 213.339 154.089 213.699 154.889C214.059 155.676 214.572 156.282 215.239 156.709C215.906 157.122 216.692 157.329 217.599 157.329C218.479 157.329 219.246 157.109 219.899 156.669C220.552 156.216 221.026 155.542 221.319 154.649L222.919 155.249ZM225.99 158.629V145.429H235.25V146.929H227.59V151.189H233.55V152.689H227.59V157.129H235.55V158.629H225.99Z" fill="#333333"/>
<path d="M643.627 145.429L641.427 158.629H640.067L642.267 145.429H643.627ZM644.627 153.709V154.929H633.527V153.709H644.627ZM638.947 145.429L636.747 158.629H635.387L637.587 145.429H638.947ZM645.507 149.109V150.329H634.407V149.109H645.507ZM653.22 158.629V155.169H646.78V153.989L652.8 145.429H654.82V153.789H657.16V155.169H654.82V158.629H653.22ZM648.48 153.789H653.22V148.849C653.22 148.502 653.227 148.149 653.24 147.789C653.267 147.429 653.287 147.076 653.3 146.729H653.26C653.1 147.062 652.894 147.436 652.64 147.849C652.387 148.262 652.154 148.622 651.94 148.929L648.48 153.789ZM664.347 158.829C662.854 158.829 661.66 158.249 660.767 157.089C659.874 155.929 659.427 154.242 659.427 152.029C659.427 149.816 659.874 148.129 660.767 146.969C661.66 145.809 662.854 145.229 664.347 145.229C665.854 145.229 667.047 145.809 667.927 146.969C668.82 148.129 669.267 149.816 669.267 152.029C669.267 154.242 668.82 155.929 667.927 157.089C667.047 158.249 665.854 158.829 664.347 158.829ZM664.347 157.389C665.054 157.389 665.647 157.189 666.127 156.789C666.62 156.376 666.987 155.769 667.227 154.969C667.48 154.169 667.607 153.189 667.607 152.029C667.607 150.869 667.48 149.889 667.227 149.089C666.987 148.289 666.62 147.689 666.127 147.289C665.647 146.876 665.054 146.669 664.347 146.669C663.64 146.669 663.04 146.876 662.547 147.289C662.067 147.689 661.7 148.289 661.447 149.089C661.207 149.889 661.087 150.869 661.087 152.029C661.087 153.189 661.207 154.169 661.447 154.969C661.7 155.769 662.067 156.376 662.547 156.789C663.04 157.189 663.64 157.389 664.347 157.389ZM676.508 145.229C677.615 145.229 678.548 145.522 679.308 146.109C680.068 146.682 680.642 147.482 681.028 148.509C681.415 149.522 681.608 150.696 681.608 152.029C681.608 153.509 681.415 154.756 681.028 155.769C680.642 156.769 680.068 157.529 679.308 158.049C678.562 158.569 677.635 158.829 676.528 158.829C675.435 158.829 674.495 158.576 673.708 158.069C672.922 157.562 672.335 156.822 671.948 155.849L673.528 155.009C673.742 155.702 674.088 156.262 674.568 156.689C675.062 157.116 675.735 157.329 676.588 157.329C677.282 157.329 677.855 157.196 678.308 156.929C678.775 156.649 679.142 156.256 679.408 155.749C679.675 155.229 679.862 154.609 679.968 153.889C680.088 153.169 680.148 152.369 680.148 151.489C680.148 151.462 680.148 151.436 680.148 151.409C680.148 151.369 680.148 151.336 680.148 151.309H680.068C679.908 151.909 679.628 152.396 679.228 152.769C678.828 153.129 678.375 153.389 677.868 153.549C677.375 153.709 676.882 153.789 676.388 153.789C675.522 153.789 674.755 153.622 674.088 153.289C673.422 152.942 672.902 152.462 672.528 151.849C672.155 151.236 671.968 150.509 671.968 149.669C671.968 148.762 672.148 147.982 672.508 147.329C672.868 146.662 673.388 146.149 674.068 145.789C674.748 145.416 675.562 145.229 676.508 145.229ZM676.528 146.769C675.595 146.769 674.882 147.029 674.388 147.549C673.895 148.056 673.648 148.769 673.648 149.689C673.648 150.476 673.908 151.102 674.428 151.569C674.948 152.022 675.648 152.249 676.528 152.249C677.102 152.249 677.602 152.136 678.028 151.909C678.468 151.669 678.808 151.349 679.048 150.949C679.288 150.536 679.408 150.062 679.408 149.529C679.408 148.969 679.288 148.482 679.048 148.069C678.808 147.656 678.468 147.336 678.028 147.109C677.602 146.882 677.102 146.769 676.528 146.769ZM687.072 158.629V148.949C687.072 148.722 687.072 148.482 687.072 148.229C687.085 147.962 687.099 147.689 687.112 147.409C686.659 147.849 686.132 148.236 685.532 148.569C684.932 148.889 684.319 149.122 683.692 149.269L683.272 147.809C683.512 147.782 683.812 147.696 684.172 147.549C684.545 147.389 684.932 147.196 685.332 146.969C685.745 146.729 686.125 146.476 686.472 146.209C686.819 145.942 687.085 145.682 687.272 145.429H688.672V158.629H687.072ZM697.125 145.429C699.192 145.429 700.812 146.002 701.985 147.149C703.172 148.282 703.765 149.909 703.765 152.029C703.765 154.149 703.172 155.782 701.985 156.929C700.812 158.062 699.192 158.629 697.125 158.629H692.865V145.429H697.125ZM697.285 157.129C698.792 157.129 699.965 156.682 700.805 155.789C701.658 154.882 702.085 153.629 702.085 152.029C702.085 150.429 701.658 149.182 700.805 148.289C699.965 147.382 698.792 146.929 697.285 146.929H694.465V157.129H697.285ZM717.35 158.629H715.65L714.25 154.969H708.27L706.87 158.629H705.19L710.33 145.429H712.23L717.35 158.629ZM708.85 153.469H713.67L711.25 146.969L708.85 153.469Z" fill="#333333"/>
<path d="M281.789 145.429L279.589 158.629H278.229L280.429 145.429H281.789ZM282.789 153.709V154.929H271.689V153.709H282.789ZM277.109 145.429L274.909 158.629H273.549L275.749 145.429H277.109ZM283.669 149.109V150.329H272.569V149.109H283.669ZM290.283 158.829C288.789 158.829 287.596 158.249 286.702 157.089C285.809 155.929 285.363 154.242 285.363 152.029C285.363 149.816 285.809 148.129 286.702 146.969C287.596 145.809 288.789 145.229 290.283 145.229C291.789 145.229 292.983 145.809 293.863 146.969C294.756 148.129 295.203 149.816 295.203 152.029C295.203 154.242 294.756 155.929 293.863 157.089C292.983 158.249 291.789 158.829 290.283 158.829ZM290.283 157.389C290.989 157.389 291.583 157.189 292.063 156.789C292.556 156.376 292.923 155.769 293.163 154.969C293.416 154.169 293.543 153.189 293.543 152.029C293.543 150.869 293.416 149.889 293.163 149.089C292.923 148.289 292.556 147.689 292.063 147.289C291.583 146.876 290.989 146.669 290.283 146.669C289.576 146.669 288.976 146.876 288.483 147.289C288.003 147.689 287.636 148.289 287.383 149.089C287.143 149.889 287.023 150.869 287.023 152.029C287.023 153.189 287.143 154.169 287.383 154.969C287.636 155.769 288.003 156.376 288.483 156.789C288.976 157.189 289.576 157.389 290.283 157.389ZM302.724 158.829C301.231 158.829 300.037 158.249 299.144 157.089C298.251 155.929 297.804 154.242 297.804 152.029C297.804 149.816 298.251 148.129 299.144 146.969C300.037 145.809 301.231 145.229 302.724 145.229C304.231 145.229 305.424 145.809 306.304 146.969C307.197 148.129 307.644 149.816 307.644 152.029C307.644 154.242 307.197 155.929 306.304 157.089C305.424 158.249 304.231 158.829 302.724 158.829ZM302.724 157.389C303.431 157.389 304.024 157.189 304.504 156.789C304.997 156.376 305.364 155.769 305.604 154.969C305.857 154.169 305.984 153.189 305.984 152.029C305.984 150.869 305.857 149.889 305.604 149.089C305.364 148.289 304.997 147.689 304.504 147.289C304.024 146.876 303.431 146.669 302.724 146.669C302.017 146.669 301.417 146.876 300.924 147.289C300.444 147.689 300.077 148.289 299.824 149.089C299.584 149.889 299.464 150.869 299.464 152.029C299.464 153.189 299.584 154.169 299.824 154.969C300.077 155.769 300.444 156.376 300.924 156.789C301.417 157.189 302.017 157.389 302.724 157.389ZM315.165 158.829C313.672 158.829 312.479 158.249 311.585 157.089C310.692 155.929 310.245 154.242 310.245 152.029C310.245 149.816 310.692 148.129 311.585 146.969C312.479 145.809 313.672 145.229 315.165 145.229C316.672 145.229 317.865 145.809 318.745 146.969C319.639 148.129 320.085 149.816 320.085 152.029C320.085 154.242 319.639 155.929 318.745 157.089C317.865 158.249 316.672 158.829 315.165 158.829ZM315.165 157.389C315.872 157.389 316.465 157.189 316.945 156.789C317.439 156.376 317.805 155.769 318.045 154.969C318.299 154.169 318.425 153.189 318.425 152.029C318.425 150.869 318.299 149.889 318.045 149.089C317.805 148.289 317.439 147.689 316.945 147.289C316.465 146.876 315.872 146.669 315.165 146.669C314.459 146.669 313.859 146.876 313.365 147.289C312.885 147.689 312.519 148.289 312.265 149.089C312.025 149.889 311.905 150.869 311.905 152.029C311.905 153.189 312.025 154.169 312.265 154.969C312.519 155.769 312.885 156.376 313.365 156.789C313.859 157.189 314.459 157.389 315.165 157.389ZM327.607 158.829C326.113 158.829 324.92 158.249 324.027 157.089C323.133 155.929 322.687 154.242 322.687 152.029C322.687 149.816 323.133 148.129 324.027 146.969C324.92 145.809 326.113 145.229 327.607 145.229C329.113 145.229 330.307 145.809 331.187 146.969C332.08 148.129 332.527 149.816 332.527 152.029C332.527 154.242 332.08 155.929 331.187 157.089C330.307 158.249 329.113 158.829 327.607 158.829ZM327.607 157.389C328.313 157.389 328.907 157.189 329.387 156.789C329.88 156.376 330.247 155.769 330.487 154.969C330.74 154.169 330.867 153.189 330.867 152.029C330.867 150.869 330.74 149.889 330.487 149.089C330.247 148.289 329.88 147.689 329.387 147.289C328.907 146.876 328.313 146.669 327.607 146.669C326.9 146.669 326.3 146.876 325.807 147.289C325.327 147.689 324.96 148.289 324.707 149.089C324.467 149.889 324.347 150.869 324.347 152.029C324.347 153.189 324.467 154.169 324.707 154.969C324.96 155.769 325.327 156.376 325.807 156.789C326.3 157.189 326.9 157.389 327.607 157.389ZM340.048 158.829C338.555 158.829 337.361 158.249 336.468 157.089C335.575 155.929 335.128 154.242 335.128 152.029C335.128 149.816 335.575 148.129 336.468 146.969C337.361 145.809 338.555 145.229 340.048 145.229C341.555 145.229 342.748 145.809 343.628 146.969C344.521 148.129 344.968 149.816 344.968 152.029C344.968 154.242 344.521 155.929 343.628 157.089C342.748 158.249 341.555 158.829 340.048 158.829ZM340.048 157.389C340.755 157.389 341.348 157.189 341.828 156.789C342.321 156.376 342.688 155.769 342.928 154.969C343.181 154.169 343.308 153.189 343.308 152.029C343.308 150.869 343.181 149.889 342.928 149.089C342.688 148.289 342.321 147.689 341.828 147.289C341.348 146.876 340.755 146.669 340.048 146.669C339.341 146.669 338.741 146.876 338.248 147.289C337.768 147.689 337.401 148.289 337.148 149.089C336.908 149.889 336.788 150.869 336.788 152.029C336.788 153.189 336.908 154.169 337.148 154.969C337.401 155.769 337.768 156.376 338.248 156.789C338.741 157.189 339.341 157.389 340.048 157.389ZM352.49 158.829C350.996 158.829 349.803 158.249 348.91 157.089C348.016 155.929 347.57 154.242 347.57 152.029C347.57 149.816 348.016 148.129 348.91 146.969C349.803 145.809 350.996 145.229 352.49 145.229C353.996 145.229 355.19 145.809 356.07 146.969C356.963 148.129 357.41 149.816 357.41 152.029C357.41 154.242 356.963 155.929 356.07 157.089C355.19 158.249 353.996 158.829 352.49 158.829ZM352.49 157.389C353.196 157.389 353.79 157.189 354.27 156.789C354.763 156.376 355.13 155.769 355.37 154.969C355.623 154.169 355.75 153.189 355.75 152.029C355.75 150.869 355.623 149.889 355.37 149.089C355.13 148.289 354.763 147.689 354.27 147.289C353.79 146.876 353.196 146.669 352.49 146.669C351.783 146.669 351.183 146.876 350.69 147.289C350.21 147.689 349.843 148.289 349.59 149.089C349.35 149.889 349.23 150.869 349.23 152.029C349.23 153.189 349.35 154.169 349.59 154.969C349.843 155.769 350.21 156.376 350.69 156.789C351.183 157.189 351.783 157.389 352.49 157.389Z" fill="#333333"/>
<path d="M768.83 145.429L766.63 158.629H765.27L767.47 145.429H768.83ZM769.83 153.709V154.929H758.73V153.709H769.83ZM764.15 145.429L761.95 158.629H760.59L762.79 145.429H764.15ZM770.71 149.109V150.329H759.61V149.109H770.71ZM771.904 145.429H781.624V146.929C780.517 148.102 779.61 149.309 778.904 150.549C778.21 151.776 777.704 153.056 777.384 154.389C777.064 155.722 776.904 157.136 776.904 158.629H775.264C775.264 157.149 775.444 155.702 775.804 154.289C776.177 152.862 776.737 151.496 777.484 150.189C778.23 148.882 779.157 147.662 780.264 146.529L780.524 146.929H771.904V145.429ZM786.474 158.629V148.949C786.474 148.722 786.474 148.482 786.474 148.229C786.488 147.962 786.501 147.689 786.514 147.409C786.061 147.849 785.534 148.236 784.934 148.569C784.334 148.889 783.721 149.122 783.094 149.269L782.674 147.809C782.914 147.782 783.214 147.696 783.574 147.549C783.948 147.389 784.334 147.196 784.734 146.969C785.148 146.729 785.528 146.476 785.874 146.209C786.221 145.942 786.488 145.682 786.674 145.429H788.074V158.629H786.474ZM796.567 145.229C797.274 145.229 797.887 145.329 798.407 145.529C798.941 145.716 799.401 146.016 799.787 146.429C800.174 146.829 800.501 147.356 800.767 148.009L799.287 148.709C799.087 148.096 798.761 147.616 798.307 147.269C797.867 146.909 797.254 146.729 796.467 146.729C795.894 146.729 795.387 146.876 794.947 147.169C794.507 147.449 794.134 147.842 793.827 148.349C793.521 148.856 793.287 149.449 793.127 150.129C792.981 150.809 792.907 151.542 792.907 152.329C792.907 152.356 792.907 152.396 792.907 152.449C792.907 152.502 792.907 152.582 792.907 152.689H792.987C793.134 152.116 793.401 151.656 793.787 151.309C794.187 150.949 794.634 150.689 795.127 150.529C795.634 150.356 796.127 150.269 796.607 150.269C797.501 150.269 798.281 150.442 798.947 150.789C799.614 151.136 800.127 151.629 800.487 152.269C800.861 152.909 801.047 153.669 801.047 154.549C801.047 155.416 800.861 156.176 800.487 156.829C800.114 157.469 799.587 157.962 798.907 158.309C798.241 158.656 797.441 158.829 796.507 158.829C795.401 158.829 794.467 158.536 793.707 157.949C792.947 157.362 792.374 156.562 791.987 155.549C791.601 154.522 791.407 153.349 791.407 152.029C791.407 150.549 791.634 149.309 792.087 148.309C792.541 147.296 793.154 146.529 793.927 146.009C794.714 145.489 795.594 145.229 796.567 145.229ZM796.487 151.809C795.914 151.809 795.407 151.929 794.967 152.169C794.541 152.396 794.207 152.716 793.967 153.129C793.727 153.529 793.607 153.996 793.607 154.529C793.607 155.036 793.734 155.502 793.987 155.929C794.241 156.342 794.581 156.676 795.007 156.929C795.447 157.169 795.941 157.289 796.487 157.289C797.394 157.289 798.101 157.049 798.607 156.569C799.114 156.076 799.367 155.396 799.367 154.529C799.367 153.969 799.254 153.489 799.027 153.089C798.801 152.676 798.474 152.362 798.047 152.149C797.621 151.922 797.101 151.809 796.487 151.809ZM809.595 158.629V155.169H803.155V153.989L809.175 145.429H811.195V153.789H813.535V155.169H811.195V158.629H809.595ZM804.855 153.789H809.595V148.849C809.595 148.502 809.602 148.149 809.615 147.789C809.642 147.429 809.662 147.076 809.675 146.729H809.635C809.475 147.062 809.269 147.436 809.015 147.849C808.762 148.262 808.529 148.622 808.315 148.929L804.855 153.789ZM820.922 145.429C822.989 145.429 824.609 146.002 825.782 147.149C826.969 148.282 827.562 149.909 827.562 152.029C827.562 154.149 826.969 155.782 825.782 156.929C824.609 158.062 822.989 158.629 820.922 158.629H816.662V145.429H820.922ZM821.082 157.129C822.589 157.129 823.762 156.682 824.602 155.789C825.455 154.882 825.882 153.629 825.882 152.029C825.882 150.429 825.455 149.182 824.602 148.289C823.762 147.382 822.589 146.929 821.082 146.929H818.262V157.129H821.082ZM841.147 158.629H839.447L838.047 154.969H832.067L830.667 158.629H828.987L834.127 145.429H836.027L841.147 158.629ZM832.647 153.469H837.467L835.047 146.969L832.647 153.469Z" fill="#333333"/>
<defs>
<filter id="filter0_d_2709_51694" x="0" y="0.628906" width="132" height="132" filterUnits="userSpaceOnUse" color-interpolation-filters="sRGB">
<feFlood flood-opacity="0" result="BackgroundImageFix"/>
<feColorMatrix in="SourceAlpha" type="matrix" values="0 0 0 0 0 0 0 0 0 0 0 0 0 0 0 0 0 0 127 0" result="hardAlpha"/>
<feOffset/>
<feGaussianBlur stdDeviation="8"/>
<feComposite in2="hardAlpha" operator="out"/>
<feColorMatrix type="matrix" values="0 0 0 0 0 0 0 0 0 0 0 0 0 0 0 0 0 0 0.16 0"/>
<feBlend mode="normal" in2="BackgroundImageFix" result="effect1_dropShadow_2709_51694"/>
<feBlend mode="normal" in="SourceGraphic" in2="effect1_dropShadow_2709_51694" result="shape"/>
</filter>
<filter id="filter1_d_2709_51694" x="485" y="0.628906" width="132" height="132" filterUnits="userSpaceOnUse" color-interpolation-filters="sRGB">
<feFlood flood-opacity="0" result="BackgroundImageFix"/>
<feColorMatrix in="SourceAlpha" type="matrix" values="0 0 0 0 0 0 0 0 0 0 0 0 0 0 0 0 0 0 127 0" result="hardAlpha"/>
<feOffset/>
<feGaussianBlur stdDeviation="8"/>
<feComposite in2="hardAlpha" operator="out"/>
<feColorMatrix type="matrix" values="0 0 0 0 0 0 0 0 0 0 0 0 0 0 0 0 0 0 0.16 0"/>
<feBlend mode="normal" in2="BackgroundImageFix" result="effect1_dropShadow_2709_51694"/>
<feBlend mode="normal" in="SourceGraphic" in2="effect1_dropShadow_2709_51694" result="shape"/>
</filter>
<filter id="filter2_d_2709_51694" x="125" y="0.628906" width="132" height="132" filterUnits="userSpaceOnUse" color-interpolation-filters="sRGB">
<feFlood flood-opacity="0" result="BackgroundImageFix"/>
<feColorMatrix in="SourceAlpha" type="matrix" values="0 0 0 0 0 0 0 0 0 0 0 0 0 0 0 0 0 0 127 0" result="hardAlpha"/>
<feOffset/>
<feGaussianBlur stdDeviation="8"/>
<feComposite in2="hardAlpha" operator="out"/>
<feColorMatrix type="matrix" values="0 0 0 0 0 0 0 0 0 0 0 0 0 0 0 0 0 0 0.16 0"/>
<feBlend mode="normal" in2="BackgroundImageFix" result="effect1_dropShadow_2709_51694"/>
<feBlend mode="normal" in="SourceGraphic" in2="effect1_dropShadow_2709_51694" result="shape"/>
</filter>
<filter id="filter3_d_2709_51694" x="610" y="0.628906" width="132" height="132" filterUnits="userSpaceOnUse" color-interpolation-filters="sRGB">
<feFlood flood-opacity="0" result="BackgroundImageFix"/>
<feColorMatrix in="SourceAlpha" type="matrix" values="0 0 0 0 0 0 0 0 0 0 0 0 0 0 0 0 0 0 127 0" result="hardAlpha"/>
<feOffset/>
<feGaussianBlur stdDeviation="8"/>
<feComposite in2="hardAlpha" operator="out"/>
<feColorMatrix type="matrix" values="0 0 0 0 0 0 0 0 0 0 0 0 0 0 0 0 0 0 0.16 0"/>
<feBlend mode="normal" in2="BackgroundImageFix" result="effect1_dropShadow_2709_51694"/>
<feBlend mode="normal" in="SourceGraphic" in2="effect1_dropShadow_2709_51694" result="shape"/>
</filter>
<filter id="filter4_d_2709_51694" x="250" y="0.628906" width="132" height="132" filterUnits="userSpaceOnUse" color-interpolation-filters="sRGB">
<feFlood flood-opacity="0" result="BackgroundImageFix"/>
<feColorMatrix in="SourceAlpha" type="matrix" values="0 0 0 0 0 0 0 0 0 0 0 0 0 0 0 0 0 0 127 0" result="hardAlpha"/>
<feOffset/>
<feGaussianBlur stdDeviation="8"/>
<feComposite in2="hardAlpha" operator="out"/>
<feColorMatrix type="matrix" values="0 0 0 0 0 0 0 0 0 0 0 0 0 0 0 0 0 0 0.16 0"/>
<feBlend mode="normal" in2="BackgroundImageFix" result="effect1_dropShadow_2709_51694"/>
<feBlend mode="normal" in="SourceGraphic" in2="effect1_dropShadow_2709_51694" result="shape"/>
</filter>
<filter id="filter5_d_2709_51694" x="735" y="0.628906" width="132" height="132" filterUnits="userSpaceOnUse" color-interpolation-filters="sRGB">
<feFlood flood-opacity="0" result="BackgroundImageFix"/>
<feColorMatrix in="SourceAlpha" type="matrix" values="0 0 0 0 0 0 0 0 0 0 0 0 0 0 0 0 0 0 127 0" result="hardAlpha"/>
<feOffset/>
<feGaussianBlur stdDeviation="8"/>
<feComposite in2="hardAlpha" operator="out"/>
<feColorMatrix type="matrix" values="0 0 0 0 0 0 0 0 0 0 0 0 0 0 0 0 0 0 0.16 0"/>
<feBlend mode="normal" in2="BackgroundImageFix" result="effect1_dropShadow_2709_51694"/>
<feBlend mode="normal" in="SourceGraphic" in2="effect1_dropShadow_2709_51694" result="shape"/>
</filter>
</defs>
</svg>
