<svg width="665" height="45" viewBox="0 0 665 45" fill="none" xmlns="http://www.w3.org/2000/svg">
<g clip-path="url(#clip0_884_20343)">
<path d="M24.9901 42.7909H38.5903V17.8152L19.8462 2.4884L1.10205 17.8152V42.7909L14.8919 42.8007" stroke="#0BCCCE" stroke-width="3" stroke-miterlimit="10"/>
<path d="M13.793 42.8007V31.0339C13.8194 30.226 14.1626 29.4617 14.7472 28.9087C15.3318 28.3557 16.11 28.0592 16.9111 28.0842H22.9781C23.7792 28.0592 24.5574 28.3557 25.142 28.9087C25.7266 29.4617 26.0698 30.226 26.0963 31.0339V42.8007" stroke="#0BCCCE" stroke-width="3" stroke-miterlimit="10"/>
<path d="M247.417 7.6952e-08C243.081 0.000363434 238.842 1.29747 235.237 3.72736C231.632 6.15724 228.822 9.61077 227.163 13.6512C225.503 17.6916 225.069 22.1375 225.916 26.4266C226.762 30.7157 228.85 34.6555 231.917 37.7477C234.983 40.8399 238.89 42.9456 243.143 43.7986C247.396 44.6517 251.804 44.2137 255.81 42.5401C259.816 40.8664 263.24 38.0323 265.649 34.3961C268.059 30.7599 269.344 26.4849 269.344 22.1117C269.344 19.2078 268.777 16.3323 267.675 13.6495C266.573 10.9666 264.958 8.52901 262.922 6.47572C260.886 4.42243 258.469 2.7937 255.808 1.68259C253.148 0.571483 250.297 -0.000242173 247.417 7.6952e-08ZM247.417 41.6714C243.581 41.6714 239.831 40.5241 236.641 38.3746C233.452 36.2252 230.966 33.1701 229.498 29.5957C228.029 26.0213 227.645 22.0882 228.394 18.2936C229.142 14.4991 230.99 11.0135 233.702 8.27782C236.415 5.5421 239.871 3.67907 243.633 2.92429C247.396 2.16951 251.296 2.55688 254.84 4.03745C258.384 5.51801 261.414 8.02525 263.545 11.2421C265.676 14.459 266.814 18.241 266.814 22.1099C266.809 27.2963 264.763 32.2688 261.127 35.9361C257.491 39.6035 252.56 41.6661 247.417 41.6714Z" fill="#0BCCCE"/>
<path d="M247.351 42.9351C258.719 42.9351 267.934 33.6625 267.934 22.2241C267.934 10.7857 258.719 1.51306 247.351 1.51306C235.983 1.51306 226.768 10.7857 226.768 22.2241C226.768 33.6625 235.983 42.9351 247.351 42.9351Z" fill="#FBFBFB"/>
<path d="M258.323 11.5848C258.179 11.3153 257.935 11.1145 257.644 11.0264C257.354 10.9384 257.04 10.9704 256.773 11.1154L256.773 11.1156L243.897 18.098C243.7 18.205 243.538 18.3682 243.432 18.5671L236.512 31.5483C236.397 31.7651 236.353 32.0134 236.388 32.2569C236.422 32.5005 236.533 32.7265 236.704 32.9021C236.875 33.0777 237.097 33.1935 237.338 33.2328C237.579 33.2721 237.826 33.2328 238.043 33.1205H238.057L250.938 26.1435C251.135 26.0365 251.297 25.8734 251.403 25.6744L258.296 12.7258C258.31 12.7005 258.324 12.6733 258.339 12.6461L258.348 12.628C258.425 12.4644 258.464 12.2846 258.459 12.1033C258.455 11.922 258.408 11.7443 258.323 11.5848ZM240.324 29.2734L244.72 21.025L248.501 24.8395L240.324 29.2734ZM250.12 23.2075L246.338 19.3931L254.517 14.9573" fill="#0BCCCE"/>
<path d="M105.758 1.11743H83.6C81.0289 1.11743 78.5632 2.14746 76.7452 3.98095C74.9271 5.81445 73.9058 8.30122 73.9058 10.8942V33.241C73.9058 35.834 74.9271 38.3207 76.7452 40.1542C78.5632 41.9877 81.0289 43.0178 83.6 43.0178H105.758C108.329 43.0178 110.795 41.9878 112.613 40.1543C114.431 38.3208 115.453 35.834 115.453 33.241V10.8942C115.453 8.30121 114.431 5.81445 112.613 3.98095C110.795 2.14746 108.329 1.11743 105.758 1.11743Z" fill="white"/>
<path d="M107.035 10.6665H92.9328C92.6666 10.6763 92.4145 10.7899 92.2296 10.9833C92.0447 11.1767 91.9414 11.4349 91.9414 11.7035C91.9414 11.9722 92.0447 12.2304 92.2296 12.4238C92.4145 12.6172 92.6666 12.7308 92.9328 12.7406H107.035C107.301 12.7307 107.553 12.6171 107.738 12.4237C107.923 12.2303 108.026 11.9721 108.026 11.7035C108.026 11.4349 107.923 11.1768 107.738 10.9834C107.553 10.79 107.301 10.6764 107.035 10.6665Z" fill="#0BCCCE"/>
<path d="M107.035 21.2209H92.9328C92.6666 21.2308 92.4145 21.3444 92.2296 21.5378C92.0447 21.7312 91.9414 21.9893 91.9414 22.258C91.9414 22.5267 92.0447 22.7849 92.2296 22.9783C92.4145 23.1717 92.6666 23.2853 92.9328 23.2951H107.035C107.301 23.2852 107.553 23.1716 107.738 22.9782C107.923 22.7848 108.026 22.5266 108.026 22.258C108.026 21.9894 107.923 21.7313 107.738 21.5379C107.553 21.3445 107.301 21.2309 107.035 21.2209Z" fill="#0BCCCE"/>
<path d="M107.035 31.7832H92.9327C92.6665 31.793 92.4145 31.9065 92.2296 32.0999C92.0447 32.2933 91.9414 32.5515 91.9414 32.8202C91.9414 33.0888 92.0447 33.347 92.2296 33.5404C92.4145 33.7337 92.6665 33.8473 92.9327 33.8571H107.035C107.301 33.8473 107.553 33.7337 107.738 33.5403C107.923 33.3469 108.026 33.0888 108.026 32.8202C108.026 32.5516 107.923 32.2934 107.738 32.1C107.553 31.9066 107.301 31.7931 107.035 31.7832Z" fill="#0BCCCE"/>
<path d="M86.6687 18.4111H81.348C81.0818 18.4177 80.829 18.5305 80.6452 18.7248C80.4614 18.9191 80.3615 19.1789 80.3674 19.4474V25.0692C80.3615 25.3376 80.4614 25.5975 80.6452 25.7917C80.829 25.986 81.0818 26.0988 81.348 26.1054H86.6687C86.9349 26.0988 87.1876 25.986 87.3714 25.7917C87.5552 25.5975 87.6551 25.3376 87.6492 25.0692V19.4474C87.6552 19.1789 87.5553 18.9191 87.3715 18.7248C87.1876 18.5305 86.9349 18.4177 86.6687 18.4111ZM85.6882 24.0327H82.3298V20.4852H85.6882V24.0327Z" fill="#0BCCCE"/>
<path d="M86.6687 7.59949H81.348C81.0818 7.60604 80.829 7.71882 80.6452 7.9131C80.4614 8.10738 80.3615 8.3673 80.3674 8.63577V14.2574C80.3615 14.5259 80.4614 14.7858 80.6452 14.9801C80.829 15.1744 81.0818 15.2872 81.348 15.2938H86.6687C86.9349 15.2872 87.1876 15.1744 87.3715 14.9801C87.5553 14.7858 87.6551 14.5259 87.6492 14.2574V8.63577C87.6552 8.3673 87.5553 8.10738 87.3715 7.9131C87.1876 7.71882 86.9349 7.60604 86.6687 7.59949ZM85.6882 13.2211H82.3298V9.67355H85.6882V13.2211Z" fill="#0BCCCE"/>
<path d="M86.6688 29.1727H81.348C81.0816 29.1793 80.8286 29.2923 80.6448 29.4868C80.4609 29.6814 80.3611 29.9417 80.3675 30.2104V35.8321C80.3615 36.1005 80.4614 36.3605 80.6452 36.5547C80.8291 36.749 81.0818 36.8618 81.348 36.8683H86.6688C86.935 36.8618 87.1877 36.749 87.3716 36.5547C87.5554 36.3605 87.6553 36.1005 87.6493 35.8321V30.2104C87.6556 29.9417 87.5559 29.6814 87.372 29.4868C87.1882 29.2923 86.9352 29.1793 86.6688 29.1727ZM85.6882 34.7958H82.3299V31.2467H85.6882V34.7958Z" fill="#0BCCCE"/>
<path d="M106.549 1.51294H81.0425C77.728 1.51294 75.041 4.22275 75.041 7.56548V37.576C75.041 40.9187 77.728 43.6285 81.0425 43.6285H106.549C109.863 43.6285 112.55 40.9187 112.55 37.576V7.56548C112.55 4.22275 109.863 1.51294 106.549 1.51294Z" stroke="#0BCCCE" stroke-width="2" stroke-miterlimit="10"/>
<path d="M160.825 15.3391H150.047V43.4033H160.825V15.3391Z" stroke="#0BCCCE" stroke-width="2"/>
<path d="M176.401 24.9175H165.624V43.4033H176.401V24.9175Z" stroke="#0BCCCE" stroke-width="2"/>
<path d="M192.006 2.21838H181.229V43.4034H192.006V2.21838Z" stroke="#0BCCCE" stroke-width="2"/>
<path d="M323.233 12.0222H319.72V32.889H323.233V12.0222Z" fill="#0BCCCE"/>
<path d="M311.131 20.6839V24.2273H331.822V20.6839H311.131Z" fill="#0BCCCE"/>
<path d="M321.476 43.3225C332.903 43.3225 342.167 33.9801 342.167 22.4557C342.167 10.9313 332.903 1.58887 321.476 1.58887C310.049 1.58887 300.786 10.9313 300.786 22.4557C300.786 33.9801 310.049 43.3225 321.476 43.3225Z" stroke="#0BCCCE" stroke-width="2" stroke-miterlimit="10"/>
<path d="M402.285 12.0579L387.449 3.0679C386.466 2.47203 385.288 2.29453 384.175 2.57442C383.062 2.85431 382.105 3.56866 381.514 4.56036L381.512 4.56289C381.22 5.05394 381.026 5.59829 380.942 6.16487C380.858 6.73144 380.886 7.30916 381.023 7.865C381.16 8.42085 381.405 8.94395 381.743 9.40444C382.081 9.86494 382.505 10.2538 382.992 10.5489L397.828 19.5389C398.315 19.8339 398.855 20.0294 399.416 20.1141C399.978 20.1987 400.551 20.171 401.102 20.0324C401.653 19.8938 402.172 19.6471 402.628 19.3063C403.085 18.9656 403.471 18.5375 403.763 18.0464L403.765 18.0439C404.356 17.0522 404.532 15.8644 404.254 14.7418C403.977 13.6193 403.268 12.6539 402.285 12.0579Z" fill="#0BCCCE"/>
<path d="M401.584 14.9085L385.283 5.03052C385.109 4.92537 384.917 4.85573 384.717 4.82556C384.517 4.79538 384.312 4.80524 384.116 4.85463C383.92 4.90402 383.735 4.99197 383.572 5.1134C383.409 5.23483 383.272 5.3874 383.168 5.56238L383.166 5.5651C383.062 5.74008 382.993 5.93408 382.963 6.13598C382.933 6.33789 382.943 6.54378 382.992 6.74187C383.041 6.93995 383.128 7.12636 383.248 7.29046C383.369 7.45457 383.52 7.59316 383.693 7.6983L399.994 17.5763C400.345 17.7887 400.765 17.852 401.161 17.7522C401.558 17.6525 401.899 17.3979 402.11 17.0445L402.111 17.0417C402.322 16.6883 402.384 16.265 402.286 15.865C402.187 15.4649 401.934 15.1209 401.584 14.9085Z" fill="#0BCCCE" stroke="#0BCCCE" stroke-width="2"/>
<path d="M397.943 13.6505L387.147 7.10852L378.212 22.1048L389.008 28.6468L397.943 13.6505Z" fill="#0BCCCE"/>
<path d="M393.536 14.7585L388.246 11.5526L382.619 20.9968L387.91 24.2027L393.536 14.7585Z" stroke="#0BCCCE" stroke-width="9"/>
<path d="M386.926 29.605L378.329 24.3308L379.353 23.869L386.926 28.4584V29.605Z" fill="white" stroke="#0BCCCE" stroke-miterlimit="10"/>
<path d="M379.571 20.2229L390.138 26.626V35.3658L371.434 23.8921L379.571 20.2229Z" fill="#0BCCCE" stroke="#0BCCCE" stroke-miterlimit="10"/>
<path d="M381.359 28.8143L373.561 41.9036" stroke="#0BCCCE" stroke-width="2"/>
<path d="M453.181 33.2949C448.997 35.0145 444.813 36.7339 440.629 38.4529C440.06 38.7258 439.419 38.807 438.801 38.6848C438.182 38.5625 437.619 38.2432 437.194 37.7738C436.79 37.3388 436.531 36.7878 436.451 36.1971C436.372 35.6065 436.477 35.0056 436.752 34.4781C437.419 33.1522 437.838 31.7138 437.989 30.2348C438.152 28.3708 437.861 26.4947 437.139 24.7708C436.465 23.1201 435.724 21.4872 435.193 19.7891C434.532 17.8385 434.405 15.7439 434.827 13.7268C435.249 11.7096 436.203 9.84484 437.589 8.32938C438.31 7.48171 439.165 6.75919 440.118 6.19066C440.33 6.06254 440.332 5.94275 440.247 5.74461C440.06 5.31124 439.884 4.87279 439.715 4.43206C439.619 4.22448 439.566 3.99936 439.559 3.77043C439.552 3.54149 439.592 3.31358 439.675 3.10056C439.759 2.88754 439.884 2.69391 440.044 2.53148C440.205 2.36906 440.396 2.24123 440.607 2.15584C440.817 2.07044 441.043 2.02926 441.27 2.03479C441.497 2.04033 441.721 2.0925 441.927 2.18807C442.133 2.28365 442.318 2.42062 442.47 2.59067C442.623 2.76072 442.739 2.96023 442.812 3.17707C442.992 3.61364 443.177 4.04837 443.339 4.49179C443.419 4.71118 443.523 4.7426 443.747 4.70005C445.893 4.20195 448.136 4.33519 450.21 5.08393C452.283 5.83266 454.1 7.1655 455.445 8.92432C456.135 9.78222 456.689 10.7433 457.085 11.7731C457.625 13.111 458.172 14.4458 458.705 15.7863C459.293 17.3586 460.222 18.7785 461.424 19.9423C462.626 21.106 464.07 21.9842 465.652 22.5125C466.366 22.7262 466.971 23.2086 467.342 23.8599C467.713 24.5113 467.821 25.2815 467.644 26.0112C467.528 26.499 467.292 26.9496 466.958 27.3212C466.624 27.6928 466.203 27.9736 465.733 28.1375C462.15 29.6055 458.569 31.0769 454.989 32.5516L453.181 33.2949Z" fill="#0BCCCE" stroke="#0BCCCE" stroke-miterlimit="10"/>
<path d="M455.45 34.8633C455.978 35.6536 456.283 36.5739 456.332 37.5256C456.381 38.4774 456.173 39.4247 455.729 40.2661C455.286 41.1076 454.623 41.8114 453.813 42.3023C453.003 42.7932 452.076 43.0525 451.131 43.0527C449.925 43.0147 448.766 42.5696 447.841 41.7886C446.915 41.0077 446.277 39.9361 446.027 38.7455" fill="#0BCCCE"/>
<path d="M455.45 34.8633C455.978 35.6536 456.283 36.5739 456.332 37.5256C456.381 38.4774 456.173 39.4247 455.729 40.2661C455.286 41.1076 454.623 41.8114 453.813 42.3023C453.003 42.7932 452.076 43.0525 451.131 43.0527C449.925 43.0147 448.766 42.5696 447.841 41.7886C446.915 41.0077 446.277 39.9361 446.027 38.7455" stroke="#0BCCCE" stroke-miterlimit="10"/>
<path d="M497.979 40.2986L513.317 23.2841L528.654 40.2986H497.979Z" fill="#0BCCCE" stroke="#0BCCCE" stroke-width="4" stroke-miterlimit="10"/>
<path d="M513.316 22.4816L522.418 32.4945H504.215L513.316 22.4816Z" fill="#FBFBFB"/>
<path d="M513.317 21.0822L496.769 2.72498H529.864L513.317 21.0822Z" fill="#FBFBFB" stroke="#0BCCCE" stroke-miterlimit="10"/>
<path d="M513.316 20.8129L505.87 12.4688H520.763L513.316 20.8129Z" fill="#0BCCCE" stroke="#0BCCCE" stroke-miterlimit="10"/>
<path d="M566.031 37.5116L562.515 41.0574C562.03 41.547 562.03 42.3407 562.515 42.8303C563.001 43.3199 563.788 43.3199 564.273 42.8303L567.789 39.2845C568.274 38.7949 568.274 38.0011 567.789 37.5116C567.304 37.022 566.517 37.022 566.031 37.5116Z" fill="#0BCCCE" stroke="#0BCCCE" stroke-miterlimit="10"/>
<path d="M586.422 37.5116C585.937 37.022 585.15 37.022 584.664 37.5116C584.179 38.0012 584.179 38.795 584.664 39.2845L588.18 42.8303C588.665 43.3199 589.453 43.3199 589.938 42.8303C590.423 42.3408 590.423 41.547 589.938 41.0574L586.422 37.5116Z" fill="#0BCCCE" stroke="#0BCCCE" stroke-miterlimit="10"/>
<path d="M576.327 41.7564C587.125 41.7564 595.88 32.9278 595.88 22.0372C595.88 11.1466 587.125 2.31799 576.327 2.31799C565.528 2.31799 556.774 11.1466 556.774 22.0372C556.774 32.9278 565.528 41.7564 576.327 41.7564Z" fill="#FBFBFB" stroke="#0BCCCE"/>
<path d="M576.327 5.6261C572.845 5.6261 569.455 6.75246 566.655 8.83963C563.855 10.9268 561.792 13.8647 560.771 17.2217C559.749 20.5787 559.822 24.1776 560.979 27.4897C562.135 30.8018 564.315 33.6524 567.197 35.6225L576.327 22.0374V5.6261Z" fill="#0BCCCE" stroke="#0BCCCE" stroke-miterlimit="10"/>
<path d="M558.957 2.63767L555.441 6.18349C554.956 6.67307 554.956 7.46683 555.441 7.9564C555.927 8.44598 556.714 8.44598 557.199 7.9564L560.715 4.41058C561.201 3.92101 561.201 3.12725 560.715 2.63767C560.23 2.1481 559.443 2.1481 558.957 2.63767Z" fill="#0BCCCE" stroke="#0BCCCE" stroke-miterlimit="10"/>
<path d="M592.072 2.86538C591.587 2.3758 590.8 2.3758 590.315 2.86538C589.829 3.35495 589.829 4.14871 590.315 4.63829L593.83 8.1841C594.316 8.67368 595.103 8.67368 595.588 8.1841C596.074 7.69453 596.074 6.90077 595.588 6.41119L592.072 2.86538Z" fill="#0BCCCE" stroke="#0BCCCE" stroke-miterlimit="10"/>
<path d="M643.198 44.2592C654.833 44.2592 664.266 34.7467 664.266 23.0123C664.266 11.278 654.833 1.76538 643.198 1.76538C631.563 1.76538 622.13 11.278 622.13 23.0123C622.13 34.7467 631.563 44.2592 643.198 44.2592Z" fill="#FBFBFB" stroke="#0BCCCE" stroke-width="2"/>
<path d="M626.982 36.6765L660.247 9.83826" stroke="#0BCCCE" stroke-width="2"/>
</g>
<defs>
<clipPath id="clip0_884_20343">
<rect width="665" height="45" fill="white"/>
</clipPath>
</defs>
</svg>
