<svg width="79" height="58" viewBox="0 0 79 58" fill="none" xmlns="http://www.w3.org/2000/svg">
<path d="M6.10832 46.7472L4.52468 41.3396H4.86403C5.76896 41.3396 6.44767 41.2335 6.90013 41.0215C7.46572 40.7034 7.80507 40.1732 8.0313 39.431C8.14442 39.1129 8.14442 38.9008 8.0313 38.6887C8.0313 38.4767 7.91819 38.2646 7.80507 38.0525C7.69195 37.8405 7.46572 37.7345 7.23949 37.6284C7.01325 37.5224 6.78702 37.5224 6.44767 37.5224H5.3165L3.16727 46.7472H0L2.14922 37.2043C2.26234 36.8862 2.37546 36.6741 2.60169 36.4621C2.94104 36.356 3.28039 36.25 3.50663 36.25H8.14442C9.16247 36.25 9.95429 36.5681 10.633 37.0983C11.3117 37.7345 11.651 38.4767 11.4248 39.431C11.3117 40.1732 10.8592 40.8094 10.1805 41.3396C9.61494 41.8697 8.93624 42.1878 8.0313 42.2938L9.72806 46.7472H6.10832ZM15.2708 46.6412C15.0446 46.7472 14.8183 46.7472 14.5921 46.7472C14.1396 46.7472 13.6872 46.6412 13.2347 46.5351C12.7822 46.4291 12.4429 46.217 12.1035 46.005C11.7642 45.7929 11.5379 45.4748 11.4248 45.1567C11.3117 44.8386 11.3117 44.4145 11.4248 43.8843C11.5379 43.5662 11.651 43.3542 11.7642 43.0361C11.9904 42.824 12.1035 42.6119 12.4429 42.3999C12.6691 42.1878 13.0084 42.0818 13.3478 41.8697C13.6871 41.7637 14.0265 41.5516 14.3659 41.4456C14.7052 41.3396 14.9314 41.3395 15.1577 41.2335C15.3839 41.2335 15.6101 41.1275 15.8364 41.1275C16.0626 41.1275 16.2888 41.0215 16.402 41.0215C16.6282 41.0215 16.7413 40.9154 16.9675 40.9154C16.7413 40.4913 16.402 40.3853 15.8364 40.3853H13.1216C12.6691 40.3853 12.556 40.1732 12.6691 39.643C12.6691 39.431 12.7822 39.3249 13.0084 39.1129C13.1216 39.0068 13.3478 38.9008 13.574 38.9008H16.5151C19.343 38.9008 20.5873 40.0672 20.0217 42.3999L19.1168 46.5351C19.1168 46.5351 19.1168 46.5351 19.0036 46.5351C18.8905 46.5351 18.7774 46.5351 18.5512 46.5351C18.3249 46.5351 17.9856 46.5351 17.6462 46.5351C17.1938 46.5351 16.6282 46.5351 15.9495 46.5351L16.0626 46.111C15.7233 46.5351 15.497 46.6412 15.2708 46.6412ZM16.1757 41.8697C15.9495 41.9757 15.7233 41.9757 15.497 42.0818C15.3839 42.1878 15.1577 42.1878 15.0446 42.2938C14.9314 42.3999 14.8183 42.5059 14.7052 42.6119C14.5921 42.824 14.479 42.93 14.3659 43.1421C14.2527 43.3542 14.1396 43.6723 14.0265 43.9904C14.0265 44.2024 13.9134 44.4145 14.0265 44.6266C14.0265 44.8386 14.1396 45.0507 14.2527 45.1567C14.3659 45.2627 14.479 45.4748 14.7052 45.5808C14.9314 45.6869 15.1577 45.6869 15.3839 45.6869C15.497 45.6869 15.6101 45.6869 15.7233 45.5808C15.8364 45.4748 15.9495 45.3688 16.1757 45.2627L16.9675 41.6576C16.7413 41.7637 16.402 41.7637 16.1757 41.8697ZM25.112 39.643C25.3382 39.537 25.4513 39.431 25.6775 39.3249C25.9038 39.2189 26.0169 39.2189 26.2431 39.1129C26.4694 39.1129 26.5825 39.0068 26.6956 39.0068C26.8087 39.0068 26.9218 39.0068 27.035 39.0068C27.7137 39.0068 28.2792 39.1129 28.7317 39.2189C29.1842 39.3249 29.5235 39.537 29.8629 39.7491C30.0891 39.9611 30.3153 40.2792 30.4285 40.5973C30.5416 40.9154 30.5416 41.3395 30.5416 41.7637V41.8697C30.5416 41.8697 30.5416 41.9757 30.5416 42.0818C30.5416 42.1878 30.5416 42.2938 30.4285 42.3999C30.4285 42.5059 30.3153 42.718 30.3153 43.0361C30.2022 43.3542 30.2022 43.6723 30.0891 44.0964C29.976 44.5205 29.8629 45.0507 29.7498 45.6869C29.7498 45.8989 29.6366 46.005 29.5235 46.111C29.4104 46.217 29.2973 46.3231 29.0711 46.4291C28.9579 46.5351 28.7317 46.5351 28.5055 46.6412C28.2792 46.6412 28.1661 46.7472 27.9399 46.7472C27.7137 46.7472 27.6005 46.7472 27.3743 46.6412C27.1481 46.6412 27.035 46.5351 26.9218 46.4291C26.8087 46.3231 26.6956 46.217 26.5825 46.111C26.4694 46.005 26.4694 45.7929 26.5825 45.6869L27.2612 42.93C27.3743 42.3999 27.4874 41.9757 27.4874 41.6576C27.4874 41.3396 27.4874 41.0215 27.4874 40.8094C27.3743 40.5973 27.2612 40.4913 27.1481 40.3853C27.0349 40.2792 26.8087 40.2792 26.4694 40.2792C26.4694 40.2792 26.3563 40.2792 26.2431 40.2792C26.13 40.2792 26.0169 40.2792 25.7907 40.3853C25.6775 40.3853 25.4513 40.4913 25.2251 40.5973C24.9988 40.7034 24.8857 40.8094 24.7726 41.0215L23.4152 46.6412H20.2479L22.0578 38.9008H25.2251L25.112 39.643ZM40.0434 46.9593C39.704 48.4437 39.1385 49.398 38.3466 50.0342C37.5548 50.6704 36.4237 50.8825 34.84 50.8825H30.994L31.3334 49.398H34.6138C34.84 49.398 35.0663 49.398 35.2925 49.398C35.5187 49.398 35.6318 49.292 35.8581 49.292C35.9712 49.1859 36.1974 49.0799 36.3105 48.8678C36.4237 48.6558 36.5368 48.3377 36.6499 48.0196C36.6499 47.9136 36.6499 47.8075 36.763 47.5955C36.763 47.3834 36.8761 47.1713 36.9892 46.8532H34.3876C33.7089 46.8532 33.1433 46.7472 32.8039 46.5351C32.4646 46.3231 32.1252 46.111 31.899 45.6869C31.6727 45.3688 31.6727 44.9447 31.6727 44.5205C31.6727 44.0964 31.7859 43.5662 31.899 43.1421C32.0121 42.5059 32.2383 42.0818 32.4646 41.5516C32.6908 41.1275 33.0301 40.7034 33.3695 40.3853C33.7089 40.0672 34.1613 39.8551 34.7269 39.643C35.2925 39.431 35.8581 39.431 36.5368 39.431H40.8352C41.0615 39.431 41.2877 39.537 41.5139 39.7491C41.627 39.9611 41.7402 40.1732 41.627 40.3853L40.0434 46.9593ZM38.3466 40.5973H37.3286C36.763 40.5973 36.3105 40.7034 35.9712 41.0215C35.8581 41.1275 35.745 41.2335 35.6318 41.3396C35.5187 41.5516 35.4056 41.6576 35.4056 41.8697C35.2925 42.0818 35.2925 42.2938 35.1794 42.5059C35.0663 42.718 35.0663 42.824 35.0663 43.0361C35.0663 43.1421 34.9531 43.2481 34.9531 43.4602C34.9531 43.6723 34.9531 43.8843 34.9531 44.0964C34.9531 44.3085 34.9531 44.5205 34.9531 44.6266C34.9531 44.8386 34.9531 44.9446 35.0663 44.9446C35.1794 45.0507 35.1794 45.0507 35.2925 45.1567C35.4056 45.1567 35.5187 45.2627 35.6318 45.2627C35.745 45.2627 35.9712 45.2627 36.3105 45.2627C36.5368 45.2627 36.8761 45.2627 37.3286 45.2627L38.3466 40.5973ZM66.739 45.4748C65.4947 46.4291 64.1373 46.8532 62.4406 46.8532H57.0109L59.1602 37.3103C59.2733 37.0983 59.3864 36.7802 59.6126 36.6741C59.8389 36.4621 60.1782 36.356 60.4044 36.356H64.3635C66.0603 36.356 67.4177 36.8862 68.3226 37.8405C69.2276 38.7948 69.4538 40.1732 69.1144 41.7637C68.7751 43.2481 67.9833 44.5205 66.739 45.4748ZM65.8341 41.3396C65.9472 40.8094 65.9472 40.3853 65.9472 39.9611C65.8341 39.2189 65.6078 38.6887 65.1554 38.2646C64.7029 37.8405 64.0242 37.6284 63.3455 37.6284H62.3274L60.5176 45.4748H61.6487C62.7799 45.4748 63.6848 45.0507 64.4767 44.0964C65.0422 43.3542 65.4947 42.3999 65.8341 41.3396ZM73.2998 44.8386C73.526 45.1567 73.8654 45.2627 74.4309 45.2627C74.8834 45.2627 75.1096 45.2627 75.449 45.1567C75.6752 45.0507 75.9015 44.9447 76.0146 44.8386C76.2408 44.7326 76.3539 44.6266 76.467 44.5205C76.5802 44.4145 76.8064 44.3085 77.0326 44.3085C77.2589 44.3085 77.4851 44.4145 77.7113 44.5205C77.8245 44.7326 77.9376 44.8386 77.8245 45.1567C77.8245 45.3688 77.5982 45.5808 77.372 45.7929C77.1458 46.005 76.8064 46.217 76.3539 46.4291C76.0146 46.6412 75.5621 46.7472 75.1097 46.8532C74.6572 46.9593 74.2047 47.0653 73.8654 47.0653C73.1867 47.0653 72.508 46.9593 71.9424 46.8532C71.3768 46.6412 70.9243 46.4291 70.585 46.111C70.2456 45.7929 70.0194 45.3688 69.9063 44.8386C69.7932 44.3085 69.7932 43.7783 69.9063 43.0361C70.0194 42.3999 70.2456 41.8697 70.585 41.3396C70.9243 40.8094 71.3768 40.4913 71.8293 40.0672C72.2817 39.7491 72.8473 39.431 73.526 39.3249C74.0916 39.1129 74.7703 39.1129 75.3359 39.1129C76.0146 39.1129 76.5802 39.2189 77.1458 39.431C77.5982 39.643 78.0507 39.8551 78.39 40.2792C78.7294 40.5973 78.8425 41.1275 78.9556 41.6576C79.0687 42.1878 78.9556 42.824 78.7294 43.4602L78.6163 43.5662H72.8473C73.0735 44.0964 73.0735 44.5205 73.2998 44.8386ZM76.8064 41.5516C76.8064 41.4456 76.6933 41.2335 76.467 41.1275C76.2408 40.9154 75.9015 40.8094 75.3359 40.8094C74.5441 40.8094 73.9785 41.2335 73.526 41.9757H76.8064C76.8064 41.7637 76.8064 41.6576 76.8064 41.5516Z" fill="white"/>
<path fill-rule="evenodd" clip-rule="evenodd" d="M63.9107 26.6143C63.9107 26.6143 54.6351 31.8098 50.4498 39.4442C45.9251 47.5026 46.6038 57.9998 46.6038 57.9998C46.6038 57.9998 49.5449 46.6544 52.8252 40.5045C55.9925 34.4607 63.9107 26.6143 63.9107 26.6143Z" fill="#EB5332"/>
<path fill-rule="evenodd" clip-rule="evenodd" d="M36.3105 28.5229C36.3105 28.5229 38.3466 28.841 40.8352 30.5376C43.8893 32.5522 47.3959 36.0513 48.414 41.9891C48.3009 51.0018 40.0433 56.9396 40.0433 56.9396C40.0433 56.9396 45.8123 50.8958 45.6992 42.7313C45.473 34.5668 36.3105 28.5229 36.3105 28.5229Z" fill="#EB5332"/>
<path d="M51.4949 36.116C51.7798 34.7361 51.1157 33.4551 50.0117 33.2549C48.9076 33.0546 47.7817 34.0108 47.4968 35.3907C47.212 36.7706 47.876 38.0515 48.9801 38.2518C50.0841 38.4521 51.21 37.4958 51.4949 36.116Z" fill="#EB5332"/>
<path fill-rule="evenodd" clip-rule="evenodd" d="M63.9105 29.5831C63.9105 29.5831 68.0958 28.5227 71.0368 29.5831C73.9779 30.5374 75.6746 33.6123 75.6746 33.6123C75.6746 33.6123 71.9418 34.4606 69.0008 33.5063C66.0597 32.4459 63.9105 29.5831 63.9105 29.5831Z" fill="#B7D03D"/>
<path fill-rule="evenodd" clip-rule="evenodd" d="M59.9516 23.4333C59.9516 23.4333 65.0419 21.2066 69.1141 21.9488C73.1863 22.585 76.1273 26.0841 76.1273 26.0841C76.1273 26.0841 71.4895 27.9927 67.5304 27.3565C63.3451 26.7203 59.9516 23.4333 59.9516 23.4333Z" fill="#00A9DD"/>
<path fill-rule="evenodd" clip-rule="evenodd" d="M52.8253 21.4188C52.8253 21.4188 55.9925 16.9655 59.8385 15.481C63.7976 13.9965 68.3223 15.587 68.3223 15.587C68.3223 15.587 65.3813 19.6163 61.5353 20.9947C57.6893 22.4791 52.8253 21.4188 52.8253 21.4188Z" fill="#B7D03D"/>
<path fill-rule="evenodd" clip-rule="evenodd" d="M64.1371 7.10406C64.1371 7.10406 61.9879 12.0876 58.4813 14.2082C54.9747 16.3289 50.2238 15.6927 50.2238 15.6927C50.2238 15.6927 52.2599 11.2393 55.6534 9.11868C59.2731 6.892 64.1371 7.10406 64.1371 7.10406Z" fill="#E32642"/>
<path fill-rule="evenodd" clip-rule="evenodd" d="M45.699 0C45.699 0 49.6581 4.02923 50.2237 7.95243C50.6762 11.8756 47.7351 15.5868 47.7351 15.5868C47.7351 15.5868 44.2285 11.8756 43.6629 8.05846C43.2104 4.02923 45.699 0 45.699 0Z" fill="#00A9DD"/>
<path fill-rule="evenodd" clip-rule="evenodd" d="M32.3517 8.48242C32.3517 8.48242 37.5551 8.48242 40.4961 10.6031C43.4372 12.6177 44.229 16.6469 44.229 16.6469C44.229 16.6469 39.5912 16.5409 36.6501 14.5263C33.596 12.4056 32.3517 8.48242 32.3517 8.48242Z" fill="#B7D03D"/>
<path fill-rule="evenodd" clip-rule="evenodd" d="M21.8317 18.1317C21.8317 18.1317 26.9219 15.1628 31.1072 15.4809C35.4057 15.6929 38.6861 19.192 38.6861 19.192C38.6861 19.192 34.0483 21.8428 29.9761 21.5247C25.6776 21.2066 21.8317 18.1317 21.8317 18.1317Z" fill="#E32642"/>
<path fill-rule="evenodd" clip-rule="evenodd" d="M23.5286 31.0678C23.5286 31.0678 26.0172 25.9782 29.6369 23.9636C33.3697 21.949 38.2337 23.0093 38.2337 23.0093C38.2337 23.0093 35.9714 27.5687 32.4648 29.5833C28.6189 31.704 23.5286 31.0678 23.5286 31.0678Z" fill="#B7D03D"/>
<path fill-rule="evenodd" clip-rule="evenodd" d="M39.7041 22.0547C39.7041 22.0547 39.0254 24.7055 40.1566 26.6141C41.2877 28.6287 44.0025 29.7951 44.0025 29.7951C44.0025 29.7951 45.1337 26.508 44.0025 24.4934C42.8714 22.5848 39.7041 22.0547 39.7041 22.0547Z" fill="#00A9DD"/>
<path fill-rule="evenodd" clip-rule="evenodd" d="M45.8121 24.3873C45.8121 24.3873 45.2465 22.1607 46.3776 20.2521C47.6219 18.2375 50.563 16.647 50.563 16.647C50.563 16.647 51.8073 20.146 50.563 22.1607C49.4318 23.9632 45.8121 24.3873 45.8121 24.3873Z" fill="#B7D03D"/>
<path fill-rule="evenodd" clip-rule="evenodd" d="M51.2417 29.6891C51.2417 29.6891 51.4679 27.3564 53.2778 25.978C55.427 24.4935 59.0467 23.9634 59.0467 23.9634C59.0467 23.9634 58.2549 27.4624 56.2188 28.9469C54.409 30.3253 51.2417 29.6891 51.2417 29.6891Z" fill="#E32642"/>
</svg>
