<svg width="71" height="71" viewBox="0 0 71 71" fill="none" xmlns="http://www.w3.org/2000/svg">
<g filter="url(#filter0_d_1996_15906)">
<circle cx="35.5" cy="35.5" r="27.5" fill="white"/>
</g>
<path fill-rule="evenodd" clip-rule="evenodd" d="M44.8226 34.5879C44.8226 34.5879 39.3811 37.6358 36.9259 42.1145C34.2715 46.8419 34.6696 53 34.6696 53C34.6696 53 36.395 46.3443 38.3194 42.7365C40.1774 39.1909 44.8226 34.5879 44.8226 34.5879Z" fill="#EB5332"/>
<path fill-rule="evenodd" clip-rule="evenodd" d="M28.6289 35.7075C28.6289 35.7075 29.8234 35.8941 31.2833 36.8894C33.075 38.0712 35.1321 40.1239 35.7294 43.6073C35.663 48.8946 30.8188 52.378 30.8188 52.378C30.8188 52.378 34.2031 48.8324 34.1367 44.0428C34.004 39.2531 28.6289 35.7075 28.6289 35.7075Z" fill="#EB5332"/>
<path d="M37.5387 40.1619C37.7058 39.3524 37.3162 38.601 36.6685 38.4835C36.0209 38.366 35.3603 38.927 35.1932 39.7364C35.0261 40.5459 35.4157 41.2974 36.0633 41.4149C36.711 41.5324 37.3716 40.9714 37.5387 40.1619Z" fill="#EB5332"/>
<path fill-rule="evenodd" clip-rule="evenodd" d="M44.8203 36.3292C44.8203 36.3292 47.2756 35.7072 49.0009 36.3292C50.7262 36.889 51.7216 38.6929 51.7216 38.6929C51.7216 38.6929 49.5318 39.1905 47.8065 38.6307C46.0811 38.0087 44.8203 36.3292 44.8203 36.3292Z" fill="#B7D03D"/>
<path fill-rule="evenodd" clip-rule="evenodd" d="M42.5 32.7214C42.5 32.7214 45.4862 31.4152 47.8751 31.8506C50.264 32.2238 51.9894 34.2765 51.9894 34.2765C51.9894 34.2765 49.2686 35.3962 46.9461 35.0229C44.4908 34.6497 42.5 32.7214 42.5 32.7214Z" fill="#00A9DD"/>
<path fill-rule="evenodd" clip-rule="evenodd" d="M38.3203 31.54C38.3203 31.54 40.1784 28.9275 42.4346 28.0566C44.7572 27.1858 47.4116 28.1188 47.4116 28.1188C47.4116 28.1188 45.6862 30.4825 43.43 31.2912C41.1738 32.162 38.3203 31.54 38.3203 31.54Z" fill="#B7D03D"/>
<path fill-rule="evenodd" clip-rule="evenodd" d="M44.9551 23.1423C44.9551 23.1423 43.6943 26.0659 41.6372 27.31C39.5801 28.554 36.793 28.1808 36.793 28.1808C36.793 28.1808 37.9874 25.5683 39.9782 24.3242C42.1017 23.0179 44.9551 23.1423 44.9551 23.1423Z" fill="#E32642"/>
<path fill-rule="evenodd" clip-rule="evenodd" d="M34.1369 18.9746C34.1369 18.9746 36.4595 21.3383 36.7913 23.6398C37.0567 25.9414 35.3314 28.1185 35.3314 28.1185C35.3314 28.1185 33.2742 25.9414 32.9424 23.7021C32.677 21.3383 34.1369 18.9746 34.1369 18.9746Z" fill="#00A9DD"/>
<path fill-rule="evenodd" clip-rule="evenodd" d="M26.3086 23.9507C26.3086 23.9507 29.3611 23.9507 31.0865 25.1947C32.8118 26.3766 33.2763 28.7403 33.2763 28.7403C33.2763 28.7403 30.5556 28.6781 28.8303 27.4963C27.0385 26.2522 26.3086 23.9507 26.3086 23.9507Z" fill="#B7D03D"/>
<path fill-rule="evenodd" clip-rule="evenodd" d="M20.1367 29.6116C20.1367 29.6116 23.1229 27.8699 25.5782 28.0565C28.0998 28.1809 30.0242 30.2336 30.0242 30.2336C30.0242 30.2336 27.3035 31.7887 24.9146 31.6021C22.3929 31.4154 20.1367 29.6116 20.1367 29.6116Z" fill="#E32642"/>
<path fill-rule="evenodd" clip-rule="evenodd" d="M21.1328 37.2001C21.1328 37.2001 22.5927 34.2144 24.7162 33.0325C26.906 31.8506 29.7595 32.4727 29.7595 32.4727C29.7595 32.4727 28.4323 35.1474 26.3752 36.3293C24.119 37.5733 21.1328 37.2001 21.1328 37.2001Z" fill="#B7D03D"/>
<path fill-rule="evenodd" clip-rule="evenodd" d="M30.6224 31.9126C30.6224 31.9126 30.2242 33.4677 30.8878 34.5873C31.5514 35.7692 33.144 36.4534 33.144 36.4534C33.144 36.4534 33.8076 34.5251 33.144 33.3433C32.4804 32.2236 30.6224 31.9126 30.6224 31.9126Z" fill="#00A9DD"/>
<path fill-rule="evenodd" clip-rule="evenodd" d="M34.204 33.2811C34.204 33.2811 33.8722 31.9748 34.5358 30.8551C35.2658 29.6733 36.9911 28.7402 36.9911 28.7402C36.9911 28.7402 37.7211 30.7929 36.9911 31.9748C36.3275 33.0323 34.204 33.2811 34.204 33.2811Z" fill="#B7D03D"/>
<path fill-rule="evenodd" clip-rule="evenodd" d="M37.3906 36.3917C37.3906 36.3917 37.5233 35.0232 38.5851 34.2146C39.8459 33.3437 41.9694 33.0327 41.9694 33.0327C41.9694 33.0327 41.5049 35.0854 40.3104 35.9563C39.2487 36.7649 37.3906 36.3917 37.3906 36.3917Z" fill="#E32642"/>
<defs>
<filter id="filter0_d_1996_15906" x="0" y="0" width="71" height="71" filterUnits="userSpaceOnUse" color-interpolation-filters="sRGB">
<feFlood flood-opacity="0" result="BackgroundImageFix"/>
<feColorMatrix in="SourceAlpha" type="matrix" values="0 0 0 0 0 0 0 0 0 0 0 0 0 0 0 0 0 0 127 0" result="hardAlpha"/>
<feOffset/>
<feGaussianBlur stdDeviation="4"/>
<feComposite in2="hardAlpha" operator="out"/>
<feColorMatrix type="matrix" values="0 0 0 0 0 0 0 0 0 0 0 0 0 0 0 0 0 0 0.2 0"/>
<feBlend mode="normal" in2="BackgroundImageFix" result="effect1_dropShadow_1996_15906"/>
<feBlend mode="normal" in="SourceGraphic" in2="effect1_dropShadow_1996_15906" result="shape"/>
</filter>
</defs>
</svg>
