<svg width="59" height="88" viewBox="0 0 59 88" fill="none" xmlns="http://www.w3.org/2000/svg">
<path d="M25.7511 49.595L25.8029 49.3537L25.6429 49.1659C21.0904 43.8221 18.0463 37.318 18.5556 30.0604C18.9219 24.8386 21.0048 21.2569 23.9765 18.9528C26.9621 16.6379 30.8927 15.5767 34.9989 15.504C39.1031 15.4314 43.3445 16.3479 46.9107 17.9447C50.4866 19.5458 53.3258 21.8038 54.7027 24.3703C57.5373 29.6538 58.8162 39.0964 58.4339 47.5025C58.2431 51.696 57.6404 55.5881 56.6339 58.5362C56.1306 60.0105 55.5333 61.2277 54.8522 62.1258C54.1715 63.0233 53.4289 63.5748 52.6355 63.7793C51.2832 64.1279 49.0589 63.886 46.3048 63.0289C43.5749 62.1793 40.4019 60.75 37.1935 58.8161L36.2932 58.2734L36.4403 59.3143L40.4244 87.5H17.6187L25.7511 49.595Z" fill="white" stroke="black"/>
<path fill-rule="evenodd" clip-rule="evenodd" d="M29.9985 14.7866C42.0551 10.6097 57.7009 15.4907 55.6071 25.2807C54.2627 31.5671 46.982 34.7071 39.8191 38.0674C38.7648 36.2369 36.7539 35 34.4467 35C31.0465 35 28.29 37.6863 28.29 41C28.29 42.1936 28.6477 43.3058 29.2642 44.2404C26.8546 46.3365 25.1544 48.8595 24.7432 52.1318C20.8595 52.1318 14.5822 40.7286 16.6546 29.9098C16.1113 29.9694 15.5592 30 15 30C6.71573 30 0 23.2843 0 15C0 6.71573 6.71573 0 15 0C23.213 0 29.8843 6.60068 29.9985 14.7866V14.7866Z" fill="black"/>
</svg>
