<svg width="66" height="89" viewBox="0 0 66 89" fill="none" xmlns="http://www.w3.org/2000/svg">
<path d="M25.7511 50.595L25.8029 50.3537L25.6429 50.1659C21.0904 44.8221 18.0463 38.318 18.5556 31.0604C18.9219 25.8386 21.0048 22.2569 23.9765 19.9528C26.9621 17.6379 30.8927 16.5767 34.9989 16.504C39.1031 16.4314 43.3445 17.3479 46.9107 18.9447C50.4866 20.5458 53.3258 22.8038 54.7027 25.3703C57.5373 30.6538 58.8162 40.0964 58.4339 48.5025C58.2431 52.696 57.6404 56.5881 56.6339 59.5362C56.1306 61.0105 55.5333 62.2277 54.8522 63.1258C54.1715 64.0233 53.4289 64.5748 52.6355 64.7793C51.2832 65.1279 49.0589 64.886 46.3048 64.0289C43.5749 63.1793 40.4019 61.75 37.1935 59.8161L36.2932 59.2734L36.4403 60.3143L40.4244 88.5H17.6187L25.7511 50.595Z" fill="white" stroke="black"/>
<path fill-rule="evenodd" clip-rule="evenodd" d="M7.59338 23.9017C6.81821 23.1335 6.39536 22.0371 6.02959 20.9959C5.64973 19.9144 5.28064 18.8217 5.02845 17.696C4.52452 15.4468 4.51973 12.8602 6.1243 11.1136C7.41114 9.71309 9.342 9.08491 11.124 8.94839C12.3113 8.85734 13.5306 9.02361 14.6687 9.39775C15.7979 9.76891 16.7713 10.5086 17.8659 10.9678C17.9077 8.5439 18.3229 6.0077 19.5526 3.93808C20.7359 1.94677 22.6225 0.829322 24.771 0.533691C26.9762 0.230298 29.1539 0.746335 31.1281 1.81393C31.6223 2.0813 32.112 2.36141 32.5806 2.67844C32.973 2.94392 33.3809 3.26363 33.8413 3.37159C34.3545 3.49209 34.6089 3.19567 34.9425 2.82123C35.3336 2.38221 35.7742 1.99553 36.2404 1.65273C38.3022 0.13726 41.0073 -0.485844 43.3959 0.422543C44.4964 0.841064 45.5666 1.55183 46.3133 2.53127C46.9788 3.40433 47.4536 4.78925 48.3721 5.39753C48.7619 5.65575 49.0372 5.31364 49.3921 5.0608C49.9253 4.68089 50.4337 4.26167 50.9732 3.89211C51.7311 3.37289 52.5517 2.98452 53.4304 2.78123C54.7168 2.4836 56.4945 2.55336 56.8623 4.23819C57.0003 4.87104 56.8945 5.54788 56.8499 6.18551C56.7886 7.06106 56.7248 7.93632 56.6487 8.81057C56.591 9.47437 56.518 10.1155 56.3928 10.7674C56.326 11.1148 56.1168 11.7626 56.2658 12.1106C56.452 12.5455 57.3114 12.2982 57.6786 12.3134C58.4038 12.3433 59.132 12.4705 59.8026 12.7804C60.3222 13.0206 60.8686 13.3738 61.0879 13.9694C61.2228 14.3353 61.1872 14.7112 61.1235 15.0876C61.0472 15.5393 61.1345 15.779 61.1916 16.2348C62.1656 15.7552 65.5407 14.6896 65.9654 16.4351C66.1068 17.0163 65.7848 17.673 65.5392 18.1632C65.1083 19.0229 64.5435 19.8087 63.966 20.5581C62.7614 22.1214 61.3234 23.4698 59.7761 24.623C61.5889 25.4289 62.0621 27.806 60.4926 29.2223C59.7996 29.8476 58.8679 29.9868 57.9938 29.9468C57.6738 29.9321 57.2126 29.8092 56.9609 29.8649C56.8254 29.8948 56.6803 30.0097 56.4926 30.0225C55.259 30.107 53.8664 29.8098 52.6605 29.536C50.5117 29.0482 48.4773 28.0302 46.8161 26.4797C46.3899 26.082 46.0379 25.853 45.4643 25.8589C44.9616 25.864 44.4685 26.0018 43.9663 26.0145C42.6376 26.0484 41.4395 25.3989 40.2057 24.9665C40.1301 26.6333 39.6555 28.4691 38.9736 29.9687C38.4176 31.1915 37.2565 31.3692 36.1155 31.4765C32.467 31.8198 28.8056 31.4367 25.1524 31.4417C28.6888 32.2411 32.343 32.5705 35.848 33.5112C37.4323 33.9362 36.2225 35.004 35.5451 35.7443C34.4296 36.9632 33.6002 38.4735 33.025 40.0646C31.295 37.8096 28.2373 36.3238 25.5283 37.0165C22.5351 37.7818 20.4274 41.8296 22.3415 44.7397C23.4527 46.429 25.4594 47.0811 27.1291 47.8069C25.8265 49.1612 25.5115 51.1614 24.7275 52.8462C24.3408 53.6771 23.798 54.6165 22.9333 54.9061C22.6133 55.0132 22.2382 55.0224 21.9858 55.2832C21.6731 55.6061 21.5987 55.9671 21.1994 56.2446C19.6062 57.3523 17.1174 57.2669 15.7052 55.8214C14.4281 54.5141 14.7604 52.4454 15.827 51.12C14.1292 50.4123 11.036 49.5021 11.7108 46.8571C8.03187 46.6128 -0.900436 40.6462 4.03725 36.2863C1.32744 34.7548 -1.16212 31.012 0.578491 27.7127C1.91881 25.1721 5.0359 24.0364 7.59338 23.9017Z" fill="black"/>
</svg>
